<?xml version="1.0" encoding="utf-8"?>
<!-- Generator: Adobe Illustrator 22.1.0, SVG Export Plug-In . SVG Version: 6.00 Build 0)  -->
<svg version="1.1" id="Layer_1" xmlns="http://www.w3.org/2000/svg" xmlns:xlink="http://www.w3.org/1999/xlink" x="0px" y="0px"
	 viewBox="0 0 640 480" style="enable-background:new 0 0 640 480;" xml:space="preserve">
<style type="text/css">
	.st0{fill:#58595B;}
</style>
<g>
	<path class="st0" d="M31.7,178.1h-3.2v-20h11.3v2.8h-8v6.2h7.5v2.8h-7.5V178.1z"/>
	<path class="st0" d="M49.2,178.4c-2.4,0-4.2-0.7-5.5-2.1c-1.3-1.4-2-3.3-2-5.7c0-2.5,0.6-4.4,1.8-5.8c1.2-1.4,2.9-2.1,5.1-2.1
		c2,0,3.6,0.6,4.7,1.8c1.2,1.2,1.7,2.9,1.7,5v1.7H45c0,1.5,0.4,2.6,1.2,3.4c0.7,0.8,1.8,1.2,3.2,1.2c0.9,0,1.7-0.1,2.5-0.3
		c0.8-0.2,1.6-0.4,2.5-0.8v2.6c-0.8,0.4-1.6,0.6-2.4,0.8C51.2,178.3,50.2,178.4,49.2,178.4z M48.6,165.1c-1,0-1.8,0.3-2.5,1
		c-0.6,0.6-1,1.6-1.1,2.8h6.9c0-1.2-0.3-2.2-0.9-2.8C50.4,165.4,49.6,165.1,48.6,165.1z"/>
	<path class="st0" d="M63.6,178.4c-1.9,0-3.4-0.7-4.4-2.1c-1.1-1.4-1.6-3.3-1.6-5.8c0-2.5,0.5-4.4,1.6-5.8c1.1-1.4,2.6-2.1,4.5-2.1
		c2,0,3.5,0.7,4.5,2.2h0.2c-0.2-1.1-0.2-1.9-0.2-2.6v-5.5h3.2v21.3h-2.5l-0.6-2h-0.2C67.1,177.6,65.5,178.4,63.6,178.4z M64.4,175.8
		c1.3,0,2.3-0.4,2.9-1.1c0.6-0.7,0.9-1.9,0.9-3.6v-0.5c0-1.9-0.3-3.3-0.9-4.1c-0.6-0.8-1.6-1.2-2.9-1.2c-1.1,0-2,0.5-2.6,1.4
		c-0.6,0.9-0.9,2.2-0.9,3.9c0,1.7,0.3,3,0.9,3.8C62.3,175.3,63.2,175.8,64.4,175.8z"/>
	<path class="st0" d="M82,178.4c-2.4,0-4.2-0.7-5.5-2.1c-1.3-1.4-2-3.3-2-5.7c0-2.5,0.6-4.4,1.8-5.8c1.2-1.4,2.9-2.1,5.1-2.1
		c2,0,3.6,0.6,4.7,1.8c1.2,1.2,1.7,2.9,1.7,5v1.7H77.8c0,1.5,0.4,2.6,1.2,3.4c0.7,0.8,1.8,1.2,3.2,1.2c0.9,0,1.7-0.1,2.5-0.3
		c0.8-0.2,1.6-0.4,2.5-0.8v2.6c-0.8,0.4-1.6,0.6-2.4,0.8C84,178.3,83.1,178.4,82,178.4z M81.4,165.1c-1,0-1.8,0.3-2.5,1
		c-0.6,0.6-1,1.6-1.1,2.8h6.9c0-1.2-0.3-2.2-0.9-2.8C83.3,165.4,82.5,165.1,81.4,165.1z"/>
	<path class="st0" d="M98.8,162.7c0.6,0,1.2,0,1.6,0.1l-0.3,3c-0.5-0.1-0.9-0.2-1.4-0.2c-1.3,0-2.3,0.4-3.1,1.3
		c-0.8,0.8-1.2,1.9-1.2,3.3v7.9h-3.2V163h2.5l0.4,2.7h0.2c0.5-0.9,1.2-1.6,2-2.1C97,163,97.9,162.7,98.8,162.7z"/>
	<path class="st0" d="M111.9,178.1l-0.6-2.1h-0.1c-0.7,0.9-1.5,1.5-2.2,1.9s-1.7,0.5-2.8,0.5c-1.5,0-2.6-0.4-3.5-1.2
		c-0.8-0.8-1.3-1.9-1.3-3.4c0-1.6,0.6-2.7,1.7-3.5c1.2-0.8,2.9-1.2,5.3-1.3l2.6-0.1V168c0-1-0.2-1.7-0.7-2.2s-1.2-0.7-2.1-0.7
		c-0.8,0-1.5,0.1-2.2,0.3c-0.7,0.2-1.4,0.5-2.1,0.8l-1-2.3c0.8-0.4,1.7-0.8,2.7-1c1-0.2,1.9-0.3,2.8-0.3c1.9,0,3.4,0.4,4.4,1.3
		c1,0.8,1.5,2.2,1.5,4v10.2H111.9z M107.2,175.9c1.2,0,2.1-0.3,2.8-1c0.7-0.7,1.1-1.6,1.1-2.7v-1.3l-1.9,0.1
		c-1.5,0.1-2.6,0.3-3.3,0.8c-0.7,0.5-1,1.1-1,2.1c0,0.7,0.2,1.2,0.6,1.6C105.8,175.7,106.4,175.9,107.2,175.9z"/>
	<path class="st0" d="M121.4,178.1h-3.2v-21.3h3.2V178.1z"/>
</g>
<g>
	<path class="st0" d="M34.7,210.4c-2.4,0-4.2-0.7-5.5-2.1c-1.3-1.4-2-3.3-2-5.7c0-2.5,0.6-4.4,1.8-5.8c1.2-1.4,2.9-2.1,5.1-2.1
		c2,0,3.6,0.6,4.7,1.8c1.2,1.2,1.7,2.9,1.7,5v1.7H30.5c0,1.5,0.4,2.6,1.2,3.4c0.7,0.8,1.8,1.2,3.2,1.2c0.9,0,1.7-0.1,2.5-0.3
		c0.8-0.2,1.6-0.4,2.5-0.8v2.6c-0.8,0.4-1.6,0.6-2.4,0.8C36.6,210.3,35.7,210.4,34.7,210.4z M34.1,197.1c-1,0-1.8,0.3-2.5,1
		c-0.6,0.6-1,1.6-1.1,2.8h6.9c0-1.2-0.3-2.2-0.9-2.8C35.9,197.5,35.1,197.1,34.1,197.1z"/>
	<path class="st0" d="M56.6,210.1h-3.2v-9.3c0-1.2-0.2-2-0.7-2.6c-0.4-0.6-1.1-0.9-2.1-0.9c-1.2,0-2.1,0.4-2.7,1.2
		c-0.6,0.8-0.9,2.1-0.9,4v7.5h-3.2V195h2.5l0.5,2h0.2c0.4-0.7,1-1.3,1.8-1.7c0.8-0.4,1.7-0.6,2.6-0.6c2.3,0,3.9,0.8,4.6,2.4h0.2
		c0.4-0.7,1.1-1.3,1.9-1.8c0.8-0.4,1.7-0.6,2.8-0.6c1.8,0,3.1,0.5,3.9,1.4c0.8,0.9,1.2,2.3,1.2,4.2v9.9h-3.2v-9.3
		c0-1.2-0.2-2-0.7-2.6c-0.4-0.6-1.1-0.9-2.1-0.9c-1.2,0-2.2,0.4-2.7,1.2c-0.6,0.8-0.9,2-0.9,3.6V210.1z"/>
	<path class="st0" d="M77.7,210.4c-1.9,0-3.4-0.7-4.5-2.1H73c0.1,1.3,0.2,2.1,0.2,2.3v6.2H70V195h2.6c0.1,0.3,0.2,1,0.5,2h0.2
		c1-1.5,2.5-2.3,4.5-2.3c1.9,0,3.4,0.7,4.4,2.1s1.6,3.3,1.6,5.8c0,2.5-0.5,4.4-1.6,5.8C81,209.7,79.6,210.4,77.7,210.4z M76.9,197.3
		c-1.3,0-2.2,0.4-2.8,1.1c-0.6,0.7-0.9,1.9-0.9,3.6v0.5c0,1.8,0.3,3.2,0.9,4c0.6,0.8,1.5,1.2,2.9,1.2c1.1,0,2-0.5,2.6-1.4
		c0.6-0.9,0.9-2.2,0.9-3.9c0-1.7-0.3-3-0.9-3.8C78.9,197.8,78,197.3,76.9,197.3z"/>
	<path class="st0" d="M90.2,210.1H87v-21.3h3.2V210.1z"/>
	<path class="st0" d="M107.8,202.5c0,2.5-0.6,4.4-1.9,5.8c-1.3,1.4-3,2.1-5.3,2.1c-1.4,0-2.7-0.3-3.7-1c-1.1-0.6-1.9-1.6-2.5-2.7
		c-0.6-1.2-0.9-2.6-0.9-4.2c0-2.5,0.6-4.4,1.9-5.7c1.3-1.4,3-2.1,5.3-2.1c2.2,0,3.9,0.7,5.2,2.1
		C107.1,198.2,107.8,200.1,107.8,202.5z M96.8,202.5c0,3.5,1.3,5.2,3.9,5.2c2.6,0,3.8-1.7,3.8-5.2c0-3.5-1.3-5.2-3.9-5.2
		c-1.3,0-2.3,0.4-2.9,1.3C97.1,199.6,96.8,200.8,96.8,202.5z"/>
	<path class="st0" d="M108.4,195h3.5l3.1,8.6c0.5,1.2,0.8,2.4,0.9,3.4h0.1c0.1-0.5,0.2-1.1,0.5-1.8c0.2-0.7,1.4-4.1,3.5-10.2h3.5
		l-6.5,17.1c-1.2,3.1-3.1,4.7-5.9,4.7c-0.7,0-1.4-0.1-2.1-0.2V214c0.5,0.1,1,0.2,1.7,0.2c1.5,0,2.6-0.9,3.3-2.7l0.6-1.4L108.4,195z"
		/>
	<path class="st0" d="M131.7,210.4c-2.4,0-4.2-0.7-5.5-2.1c-1.3-1.4-2-3.3-2-5.7c0-2.5,0.6-4.4,1.8-5.8c1.2-1.4,2.9-2.1,5.1-2.1
		c2,0,3.6,0.6,4.7,1.8c1.2,1.2,1.7,2.9,1.7,5v1.7h-10.1c0,1.5,0.4,2.6,1.2,3.4c0.7,0.8,1.8,1.2,3.2,1.2c0.9,0,1.7-0.1,2.5-0.3
		c0.8-0.2,1.6-0.4,2.5-0.8v2.6c-0.8,0.4-1.6,0.6-2.4,0.8C133.6,210.3,132.7,210.4,131.7,210.4z M131.1,197.1c-1,0-1.8,0.3-2.5,1
		c-0.6,0.6-1,1.6-1.1,2.8h6.9c0-1.2-0.3-2.2-0.9-2.8C132.9,197.5,132.1,197.1,131.1,197.1z"/>
	<path class="st0" d="M147.5,210.4c-2.4,0-4.2-0.7-5.5-2.1c-1.3-1.4-2-3.3-2-5.7c0-2.5,0.6-4.4,1.8-5.8c1.2-1.4,2.9-2.1,5.1-2.1
		c2,0,3.6,0.6,4.7,1.8c1.2,1.2,1.7,2.9,1.7,5v1.7h-10.1c0,1.5,0.4,2.6,1.2,3.4c0.7,0.8,1.8,1.2,3.2,1.2c0.9,0,1.7-0.1,2.5-0.3
		c0.8-0.2,1.6-0.4,2.5-0.8v2.6c-0.8,0.4-1.6,0.6-2.4,0.8C149.4,210.3,148.5,210.4,147.5,210.4z M146.9,197.1c-1,0-1.8,0.3-2.5,1
		c-0.6,0.6-1,1.6-1.1,2.8h6.9c0-1.2-0.3-2.2-0.9-2.8C148.7,197.5,147.9,197.1,146.9,197.1z"/>
	<path class="st0" d="M166.8,205.8c0,1.5-0.5,2.6-1.6,3.4c-1.1,0.8-2.6,1.2-4.6,1.2c-2,0-3.6-0.3-4.9-0.9v-2.8
		c1.8,0.8,3.4,1.2,5,1.2c2,0,3-0.6,3-1.8c0-0.4-0.1-0.7-0.3-1c-0.2-0.3-0.6-0.5-1.1-0.8c-0.5-0.3-1.2-0.6-2.1-0.9
		c-1.7-0.7-2.9-1.3-3.5-2c-0.6-0.7-0.9-1.5-0.9-2.6c0-1.3,0.5-2.3,1.6-3c1-0.7,2.5-1.1,4.3-1.1c1.8,0,3.5,0.4,5,1.1l-1,2.4
		c-1.6-0.7-3-1-4.1-1c-1.7,0-2.5,0.5-2.5,1.4c0,0.5,0.2,0.9,0.7,1.2c0.4,0.3,1.4,0.8,2.9,1.4c1.2,0.5,2.2,0.9,2.7,1.3
		c0.6,0.4,1,0.9,1.3,1.4C166.7,204.4,166.8,205.1,166.8,205.8z"/>
	<path class="st0" d="M169.3,196.7c0-1.4,0.7-2.1,2-2.1c0.7,0,1.2,0.2,1.5,0.5c0.3,0.4,0.5,0.9,0.5,1.5c0,0.6-0.2,1.2-0.5,1.5
		c-0.4,0.4-0.9,0.6-1.5,0.6s-1.2-0.2-1.5-0.6C169.5,197.9,169.3,197.4,169.3,196.7z M169.3,208.4c0-0.7,0.2-1.2,0.5-1.5
		c0.3-0.4,0.8-0.5,1.5-0.5c0.7,0,1.2,0.2,1.5,0.6c0.3,0.4,0.5,0.9,0.5,1.5c0,0.6-0.2,1.2-0.5,1.5c-0.4,0.4-0.9,0.6-1.5,0.6
		s-1.2-0.2-1.5-0.6C169.5,209.6,169.3,209,169.3,208.4z"/>
</g>
</svg>
