<?xml version="1.0" encoding="utf-8"?>
<!-- Generator: Adobe Illustrator 22.1.0, SVG Export Plug-In . SVG Version: 6.00 Build 0)  -->
<svg version="1.1" id="Layer_1" xmlns="http://www.w3.org/2000/svg" xmlns:xlink="http://www.w3.org/1999/xlink" x="0px" y="0px"
	 viewBox="0 0 640 480" style="enable-background:new 0 0 640 480;" xml:space="preserve">
<style type="text/css">
	.st0{fill:#58595B;}
</style>
<g>
	<path class="st0" d="M39.8,255.5l-2-5.6h-7.6l-2,5.6h-3.4l7.5-20.1h3.6l7.5,20.1H39.8z M37,247.1l-1.9-5.4
		c-0.1-0.4-0.3-0.9-0.6-1.7c-0.2-0.8-0.4-1.4-0.5-1.7c-0.2,1.1-0.6,2.3-1.1,3.7l-1.8,5.2H37z"/>
	<path class="st0" d="M58.8,255.5h-3.2v-9.3c0-1.2-0.2-2-0.7-2.6c-0.5-0.6-1.2-0.9-2.2-0.9c-1.4,0-2.4,0.4-3,1.2s-0.9,2.1-0.9,4v7.5
		h-3.2v-15.1H48l0.5,2h0.2c0.5-0.7,1.1-1.3,1.9-1.7c0.8-0.4,1.8-0.6,2.8-0.6c3.6,0,5.4,1.8,5.4,5.5V255.5z"/>
	<path class="st0" d="M76.7,255.8c-2.4,0-4.2-0.7-5.5-2.1s-2-3.3-2-5.7c0-2.5,0.6-4.4,1.8-5.8s2.9-2.1,5.1-2.1c2,0,3.6,0.6,4.7,1.8
		c1.2,1.2,1.7,2.9,1.7,5v1.7H72.5c0,1.5,0.4,2.6,1.2,3.4c0.7,0.8,1.8,1.2,3.2,1.2c0.9,0,1.7-0.1,2.5-0.3c0.8-0.2,1.6-0.4,2.5-0.8
		v2.6c-0.8,0.4-1.6,0.6-2.4,0.8C78.6,255.7,77.7,255.8,76.7,255.8z M76.1,242.5c-1,0-1.8,0.3-2.5,1s-1,1.6-1.1,2.8h6.9
		c0-1.2-0.3-2.2-0.9-2.8C77.9,242.9,77.1,242.5,76.1,242.5z"/>
	<path class="st0" d="M95.1,255.5l-0.6-2.1h-0.1c-0.7,0.9-1.5,1.5-2.2,1.9s-1.7,0.5-2.8,0.5c-1.5,0-2.6-0.4-3.5-1.2
		s-1.3-1.9-1.3-3.4c0-1.6,0.6-2.7,1.7-3.5c1.2-0.8,2.9-1.2,5.3-1.3l2.6-0.1v-0.8c0-1-0.2-1.7-0.7-2.2s-1.2-0.7-2.1-0.7
		c-0.8,0-1.5,0.1-2.2,0.3s-1.4,0.5-2.1,0.8l-1-2.3c0.8-0.4,1.7-0.8,2.7-1c1-0.2,1.9-0.3,2.8-0.3c1.9,0,3.4,0.4,4.4,1.3
		c1,0.8,1.5,2.2,1.5,4v10.2H95.1z M90.3,253.3c1.2,0,2.1-0.3,2.8-1c0.7-0.7,1.1-1.6,1.1-2.7v-1.3l-1.9,0.1c-1.5,0.1-2.6,0.3-3.3,0.8
		c-0.7,0.5-1,1.1-1,2.1c0,0.7,0.2,1.2,0.6,1.6C88.9,253.1,89.5,253.3,90.3,253.3z"/>
	<path class="st0" d="M111.7,251.2c0,1.5-0.5,2.6-1.6,3.4c-1.1,0.8-2.6,1.2-4.6,1.2c-2,0-3.6-0.3-4.9-0.9v-2.8
		c1.8,0.8,3.4,1.2,5,1.2c2,0,3-0.6,3-1.8c0-0.4-0.1-0.7-0.3-1s-0.6-0.5-1.1-0.8c-0.5-0.3-1.2-0.6-2.1-0.9c-1.7-0.7-2.9-1.3-3.5-2
		s-0.9-1.5-0.9-2.6c0-1.3,0.5-2.3,1.6-3c1-0.7,2.5-1.1,4.3-1.1c1.8,0,3.5,0.4,5,1.1l-1,2.4c-1.6-0.7-3-1-4.1-1
		c-1.7,0-2.5,0.5-2.5,1.4c0,0.5,0.2,0.9,0.7,1.2c0.4,0.3,1.4,0.8,2.9,1.4c1.2,0.5,2.2,0.9,2.7,1.3c0.6,0.4,1,0.9,1.3,1.4
		S111.7,250.5,111.7,251.2z"/>
	<path class="st0" d="M113.1,240.4h3.5l3.1,8.6c0.5,1.2,0.8,2.4,0.9,3.4h0.1c0.1-0.5,0.2-1.1,0.5-1.8s1.4-4.1,3.5-10.2h3.5
		l-6.5,17.1c-1.2,3.1-3.1,4.7-5.9,4.7c-0.7,0-1.4-0.1-2.1-0.2v-2.5c0.5,0.1,1,0.2,1.7,0.2c1.5,0,2.6-0.9,3.3-2.7l0.6-1.4
		L113.1,240.4z"/>
	<path class="st0" d="M149.5,255.5l-2-7.1c-0.2-0.7-0.7-2.5-1.3-5.2h-0.1c-0.5,2.5-0.9,4.2-1.3,5.2l-2,7h-3.6l-4.2-15.1h3.3l1.9,7.5
		c0.4,1.8,0.7,3.4,0.9,4.7h0.1c0.1-0.7,0.2-1.4,0.4-2.3c0.2-0.9,0.3-1.5,0.5-1.9l2.3-8h3.5l2.2,8c0.1,0.4,0.3,1.1,0.5,2.1
		s0.3,1.6,0.4,2.1h0.1c0.1-1.1,0.5-2.7,1-4.7l2-7.5h3.2l-4.3,15.1H149.5z"/>
	<path class="st0" d="M168.8,255.5l-0.6-2.1H168c-0.7,0.9-1.5,1.5-2.2,1.9s-1.7,0.5-2.8,0.5c-1.5,0-2.6-0.4-3.5-1.2
		s-1.3-1.9-1.3-3.4c0-1.6,0.6-2.7,1.7-3.5c1.2-0.8,2.9-1.2,5.3-1.3l2.6-0.1v-0.8c0-1-0.2-1.7-0.7-2.2s-1.2-0.7-2.1-0.7
		c-0.8,0-1.5,0.1-2.2,0.3s-1.4,0.5-2.1,0.8l-1-2.3c0.8-0.4,1.7-0.8,2.7-1c1-0.2,1.9-0.3,2.8-0.3c1.9,0,3.4,0.4,4.4,1.3
		c1,0.8,1.5,2.2,1.5,4v10.2H168.8z M164,253.3c1.2,0,2.1-0.3,2.8-1c0.7-0.7,1.1-1.6,1.1-2.7v-1.3l-1.9,0.1c-1.5,0.1-2.6,0.3-3.3,0.8
		c-0.7,0.5-1,1.1-1,2.1c0,0.7,0.2,1.2,0.6,1.6C162.6,253.1,163.2,253.3,164,253.3z"/>
	<path class="st0" d="M172.5,240.4h3.5l3.1,8.6c0.5,1.2,0.8,2.4,0.9,3.4h0.1c0.1-0.5,0.2-1.1,0.5-1.8s1.4-4.1,3.5-10.2h3.5
		l-6.5,17.1c-1.2,3.1-3.1,4.7-5.9,4.7c-0.7,0-1.4-0.1-2.1-0.2v-2.5c0.5,0.1,1,0.2,1.7,0.2c1.5,0,2.6-0.9,3.3-2.7l0.6-1.4
		L172.5,240.4z"/>
	<path class="st0" d="M202.2,253.2c0.8,0,1.6-0.1,2.4-0.4v2.4c-0.4,0.2-0.8,0.3-1.4,0.4s-1.1,0.2-1.7,0.2c-3,0-4.6-1.6-4.6-4.8v-8.1
		h-2.1v-1.4l2.2-1.2l1.1-3.2h2v3.4h4.3v2.4h-4.3v8.1c0,0.8,0.2,1.3,0.6,1.7C201.1,253,201.6,253.2,202.2,253.2z"/>
	<path class="st0" d="M220.4,247.9c0,2.5-0.6,4.4-1.9,5.8c-1.3,1.4-3,2.1-5.3,2.1c-1.4,0-2.7-0.3-3.7-1c-1.1-0.6-1.9-1.6-2.5-2.7
		c-0.6-1.2-0.9-2.6-0.9-4.2c0-2.5,0.6-4.4,1.9-5.7s3-2.1,5.3-2.1c2.2,0,3.9,0.7,5.2,2.1C219.7,243.6,220.4,245.5,220.4,247.9z
		 M209.4,247.9c0,3.5,1.3,5.2,3.9,5.2c2.6,0,3.8-1.7,3.8-5.2c0-3.5-1.3-5.2-3.9-5.2c-1.3,0-2.3,0.4-2.9,1.3
		C209.7,245,209.4,246.3,209.4,247.9z"/>
</g>
<g>
	<path class="st0" d="M34.8,272.1c1.9,0,3.4,0.7,4.4,2.1s1.6,3.3,1.6,5.8c0,2.5-0.5,4.4-1.6,5.8s-2.5,2.1-4.4,2.1
		c-1.9,0-3.4-0.7-4.5-2.1h-0.2l-0.6,1.8h-2.4v-21.3h3.2v5.1c0,0.4,0,0.9-0.1,1.7c0,0.7-0.1,1.2-0.1,1.4h0.1
		C31.3,272.9,32.8,272.1,34.8,272.1z M34,274.7c-1.3,0-2.2,0.4-2.8,1.1c-0.6,0.8-0.9,2-0.9,3.8v0.2c0,1.8,0.3,3.2,0.9,4
		c0.6,0.8,1.5,1.2,2.9,1.2c1.1,0,2-0.5,2.6-1.4s0.9-2.2,0.9-3.9C37.5,276.5,36.3,274.7,34,274.7z"/>
	<path class="st0" d="M57.6,279.9c0,2.5-0.6,4.4-1.9,5.8c-1.3,1.4-3,2.1-5.3,2.1c-1.4,0-2.7-0.3-3.7-1c-1.1-0.6-1.9-1.6-2.5-2.7
		c-0.6-1.2-0.9-2.6-0.9-4.2c0-2.5,0.6-4.4,1.9-5.7s3-2.1,5.3-2.1c2.2,0,3.9,0.7,5.2,2.1C57,275.6,57.6,277.5,57.6,279.9z
		 M46.6,279.9c0,3.5,1.3,5.2,3.9,5.2c2.6,0,3.8-1.7,3.8-5.2c0-3.5-1.3-5.2-3.9-5.2c-1.3,0-2.3,0.4-2.9,1.3
		C46.9,277,46.6,278.3,46.6,279.9z"/>
	<path class="st0" d="M74.3,279.9c0,2.5-0.6,4.4-1.9,5.8c-1.3,1.4-3,2.1-5.3,2.1c-1.4,0-2.7-0.3-3.7-1c-1.1-0.6-1.9-1.6-2.5-2.7
		c-0.6-1.2-0.9-2.6-0.9-4.2c0-2.5,0.6-4.4,1.9-5.7s3-2.1,5.3-2.1c2.2,0,3.9,0.7,5.2,2.1C73.6,275.6,74.3,277.5,74.3,279.9z
		 M63.3,279.9c0,3.5,1.3,5.2,3.9,5.2c2.6,0,3.8-1.7,3.8-5.2c0-3.5-1.3-5.2-3.9-5.2c-1.3,0-2.3,0.4-2.9,1.3
		C63.6,277,63.3,278.3,63.3,279.9z"/>
	<path class="st0" d="M87.6,283.2c0,1.5-0.5,2.6-1.6,3.4c-1.1,0.8-2.6,1.2-4.6,1.2c-2,0-3.6-0.3-4.9-0.9v-2.8c1.8,0.8,3.4,1.2,5,1.2
		c2,0,3-0.6,3-1.8c0-0.4-0.1-0.7-0.3-1s-0.6-0.5-1.1-0.8c-0.5-0.3-1.2-0.6-2.1-0.9c-1.7-0.7-2.9-1.3-3.5-2s-0.9-1.5-0.9-2.6
		c0-1.3,0.5-2.3,1.6-3c1-0.7,2.5-1.1,4.3-1.1c1.8,0,3.5,0.4,5,1.1l-1,2.4c-1.6-0.7-3-1-4.1-1c-1.7,0-2.5,0.5-2.5,1.4
		c0,0.5,0.2,0.9,0.7,1.2c0.4,0.3,1.4,0.8,2.9,1.4c1.2,0.5,2.2,0.9,2.7,1.3c0.6,0.4,1,0.9,1.3,1.4S87.6,282.5,87.6,283.2z"/>
	<path class="st0" d="M96.8,285.2c0.8,0,1.6-0.1,2.4-0.4v2.4c-0.4,0.2-0.8,0.3-1.4,0.4s-1.1,0.2-1.7,0.2c-3,0-4.6-1.6-4.6-4.8v-8.1
		h-2.1v-1.4l2.2-1.2l1.1-3.2h2v3.4H99v2.4h-4.3v8.1c0,0.8,0.2,1.3,0.6,1.7C95.6,285,96.1,285.2,96.8,285.2z"/>
	<path class="st0" d="M106.6,272.4h3.5l3.1,8.6c0.5,1.2,0.8,2.4,0.9,3.4h0.1c0.1-0.5,0.2-1.1,0.5-1.8s1.4-4.1,3.5-10.2h3.5
		l-6.5,17.1c-1.2,3.1-3.1,4.7-5.9,4.7c-0.7,0-1.4-0.1-2.1-0.2v-2.5c0.5,0.1,1,0.2,1.7,0.2c1.5,0,2.6-0.9,3.3-2.7l0.6-1.4
		L106.6,272.4z"/>
	<path class="st0" d="M136.6,279.9c0,2.5-0.6,4.4-1.9,5.8c-1.3,1.4-3,2.1-5.3,2.1c-1.4,0-2.7-0.3-3.7-1c-1.1-0.6-1.9-1.6-2.5-2.7
		c-0.6-1.2-0.9-2.6-0.9-4.2c0-2.5,0.6-4.4,1.9-5.7s3-2.1,5.3-2.1c2.2,0,3.9,0.7,5.2,2.1C136,275.6,136.6,277.5,136.6,279.9z
		 M125.6,279.9c0,3.5,1.3,5.2,3.9,5.2c2.6,0,3.8-1.7,3.8-5.2c0-3.5-1.3-5.2-3.9-5.2c-1.3,0-2.3,0.4-2.9,1.3
		C125.9,277,125.6,278.3,125.6,279.9z"/>
	<path class="st0" d="M150.5,287.5l-0.5-2h-0.2c-0.4,0.7-1.1,1.3-1.9,1.7c-0.8,0.4-1.8,0.6-2.8,0.6c-1.8,0-3.2-0.5-4.1-1.4
		s-1.4-2.3-1.4-4.1v-9.9h3.2v9.3c0,1.2,0.2,2,0.7,2.6c0.5,0.6,1.2,0.9,2.2,0.9c1.3,0,2.3-0.4,3-1.2c0.6-0.8,1-2.2,1-4.1v-7.5h3.2
		v15.1H150.5z"/>
	<path class="st0" d="M164.7,272.1c0.6,0,1.2,0,1.6,0.1l-0.3,3c-0.5-0.1-0.9-0.2-1.4-0.2c-1.3,0-2.3,0.4-3.1,1.3
		c-0.8,0.8-1.2,1.9-1.2,3.3v7.9H157v-15.1h2.5l0.4,2.7h0.2c0.5-0.9,1.2-1.6,2-2.1S163.8,272.1,164.7,272.1z"/>
	<path class="st0" d="M179,287.5h-3.2v-21.3h3.2V287.5z"/>
	<path class="st0" d="M182.9,268.4c0-0.6,0.2-1,0.5-1.3s0.8-0.5,1.3-0.5c0.6,0,1,0.2,1.3,0.5s0.5,0.8,0.5,1.3c0,0.5-0.2,1-0.5,1.3
		s-0.8,0.5-1.3,0.5c-0.6,0-1-0.2-1.3-0.5S182.9,268.9,182.9,268.4z M186.3,287.5h-3.2v-15.1h3.2V287.5z"/>
	<path class="st0" d="M198,274.8h-3.7v12.7h-3.2v-12.7h-2.5v-1.5l2.5-1v-1c0-1.8,0.4-3.1,1.3-4c0.8-0.9,2.1-1.3,3.8-1.3
		c1.1,0,2.2,0.2,3.3,0.6l-0.8,2.4c-0.8-0.3-1.5-0.4-2.3-0.4c-0.7,0-1.3,0.2-1.6,0.7c-0.3,0.5-0.5,1.1-0.5,2v1h3.7V274.8z"/>
	<path class="st0" d="M206.7,287.8c-2.4,0-4.2-0.7-5.5-2.1s-2-3.3-2-5.7c0-2.5,0.6-4.4,1.8-5.8s2.9-2.1,5.1-2.1c2,0,3.6,0.6,4.7,1.8
		c1.2,1.2,1.7,2.9,1.7,5v1.7h-10.1c0,1.5,0.4,2.6,1.2,3.4c0.7,0.8,1.8,1.2,3.2,1.2c0.9,0,1.7-0.1,2.5-0.3c0.8-0.2,1.6-0.4,2.5-0.8
		v2.6c-0.8,0.4-1.6,0.6-2.4,0.8C208.7,287.7,207.8,287.8,206.7,287.8z M206.1,274.6c-1,0-1.8,0.3-2.5,1s-1,1.6-1.1,2.8h6.9
		c0-1.2-0.3-2.2-0.9-2.8C208,274.9,207.2,274.6,206.1,274.6z"/>
</g>
<g>
	<path class="st0" d="M26.9,300.4c0-0.6,0.2-1,0.5-1.3s0.8-0.5,1.3-0.5c0.6,0,1,0.2,1.3,0.5s0.5,0.8,0.5,1.3c0,0.5-0.2,1-0.5,1.3
		s-0.8,0.5-1.3,0.5c-0.6,0-1-0.2-1.3-0.5S26.9,300.9,26.9,300.4z M30.3,319.5h-3.2v-15.1h3.2V319.5z"/>
	<path class="st0" d="M47.6,319.5h-3.2v-9.3c0-1.2-0.2-2-0.7-2.6c-0.5-0.6-1.2-0.9-2.2-0.9c-1.4,0-2.4,0.4-3,1.2s-0.9,2.1-0.9,4v7.5
		h-3.2v-15.1h2.5l0.5,2h0.2c0.5-0.7,1.1-1.3,1.9-1.7c0.8-0.4,1.8-0.6,2.8-0.6c3.6,0,5.4,1.8,5.4,5.5V319.5z"/>
	<path class="st0" d="M61.8,315.2c0,1.5-0.5,2.6-1.6,3.4c-1.1,0.8-2.6,1.2-4.6,1.2c-2,0-3.6-0.3-4.9-0.9v-2.8c1.8,0.8,3.4,1.2,5,1.2
		c2,0,3-0.6,3-1.8c0-0.4-0.1-0.7-0.3-1s-0.6-0.5-1.1-0.8c-0.5-0.3-1.2-0.6-2.1-0.9c-1.7-0.7-2.9-1.3-3.5-2s-0.9-1.5-0.9-2.6
		c0-1.3,0.5-2.3,1.6-3c1-0.7,2.5-1.1,4.3-1.1c1.8,0,3.5,0.4,5,1.1l-1,2.4c-1.6-0.7-3-1-4.1-1c-1.7,0-2.5,0.5-2.5,1.4
		c0,0.5,0.2,0.9,0.7,1.2c0.4,0.3,1.4,0.8,2.9,1.4c1.2,0.5,2.2,0.9,2.7,1.3c0.6,0.4,1,0.9,1.3,1.4S61.8,314.5,61.8,315.2z"/>
	<path class="st0" d="M75.4,319.5l-0.5-2h-0.2c-0.4,0.7-1.1,1.3-1.9,1.7c-0.8,0.4-1.8,0.6-2.8,0.6c-1.8,0-3.2-0.5-4.1-1.4
		s-1.4-2.3-1.4-4.1v-9.9h3.2v9.3c0,1.2,0.2,2,0.7,2.6c0.5,0.6,1.2,0.9,2.2,0.9c1.3,0,2.3-0.4,3-1.2c0.6-0.8,1-2.2,1-4.1v-7.5H78
		v15.1H75.4z"/>
	<path class="st0" d="M89.6,304.1c0.6,0,1.2,0,1.6,0.1l-0.3,3c-0.5-0.1-0.9-0.2-1.4-0.2c-1.3,0-2.3,0.4-3.1,1.3
		c-0.8,0.8-1.2,1.9-1.2,3.3v7.9H82v-15.1h2.5l0.4,2.7h0.2c0.5-0.9,1.2-1.6,2-2.1S88.7,304.1,89.6,304.1z"/>
	<path class="st0" d="M102.8,319.5l-0.6-2.1H102c-0.7,0.9-1.5,1.5-2.2,1.9s-1.7,0.5-2.8,0.5c-1.5,0-2.6-0.4-3.5-1.2
		s-1.3-1.9-1.3-3.4c0-1.6,0.6-2.7,1.7-3.5c1.2-0.8,2.9-1.2,5.3-1.3l2.6-0.1v-0.8c0-1-0.2-1.7-0.7-2.2s-1.2-0.7-2.1-0.7
		c-0.8,0-1.5,0.1-2.2,0.3s-1.4,0.5-2.1,0.8l-1-2.3c0.8-0.4,1.7-0.8,2.7-1c1-0.2,1.9-0.3,2.8-0.3c1.9,0,3.4,0.4,4.4,1.3
		c1,0.8,1.5,2.2,1.5,4v10.2H102.8z M98,317.3c1.2,0,2.1-0.3,2.8-1c0.7-0.7,1.1-1.6,1.1-2.7v-1.3l-1.9,0.1c-1.5,0.1-2.6,0.3-3.3,0.8
		c-0.7,0.5-1,1.1-1,2.1c0,0.7,0.2,1.2,0.6,1.6C96.6,317.1,97.2,317.3,98,317.3z"/>
	<path class="st0" d="M122.3,319.5H119v-9.3c0-1.2-0.2-2-0.7-2.6c-0.5-0.6-1.2-0.9-2.2-0.9c-1.4,0-2.4,0.4-3,1.2s-0.9,2.1-0.9,4v7.5
		H109v-15.1h2.5l0.5,2h0.2c0.5-0.7,1.1-1.3,1.9-1.7c0.8-0.4,1.8-0.6,2.8-0.6c3.6,0,5.4,1.8,5.4,5.5V319.5z"/>
	<path class="st0" d="M132.3,319.8c-2.3,0-4-0.7-5.2-2s-1.8-3.3-1.8-5.7c0-2.5,0.6-4.5,1.9-5.9s3-2.1,5.4-2.1c1.6,0,3,0.3,4.3,0.9
		l-1,2.6c-1.4-0.5-2.5-0.8-3.4-0.8c-2.6,0-3.9,1.7-3.9,5.2c0,1.7,0.3,3,1,3.8c0.7,0.9,1.6,1.3,2.9,1.3c1.4,0,2.8-0.4,4.1-1.1v2.8
		c-0.6,0.3-1.2,0.6-1.8,0.7C134.1,319.7,133.3,319.8,132.3,319.8z"/>
	<path class="st0" d="M146,319.8c-2.4,0-4.2-0.7-5.5-2.1s-2-3.3-2-5.7c0-2.5,0.6-4.4,1.8-5.8s2.9-2.1,5.1-2.1c2,0,3.6,0.6,4.7,1.8
		c1.2,1.2,1.7,2.9,1.7,5v1.7h-10.1c0,1.5,0.4,2.6,1.2,3.4c0.7,0.8,1.8,1.2,3.2,1.2c0.9,0,1.7-0.1,2.5-0.3c0.8-0.2,1.6-0.4,2.5-0.8
		v2.6c-0.8,0.4-1.6,0.6-2.4,0.8C148,319.7,147.1,319.8,146,319.8z M145.5,306.6c-1,0-1.8,0.3-2.5,1s-1,1.6-1.1,2.8h6.9
		c0-1.2-0.3-2.2-0.9-2.8C147.3,306.9,146.5,306.6,145.5,306.6z"/>
	<path class="st0" d="M154.7,317.8c0-0.7,0.2-1.2,0.5-1.5c0.3-0.4,0.8-0.5,1.5-0.5c0.7,0,1.2,0.2,1.5,0.6c0.3,0.4,0.5,0.9,0.5,1.5
		c0,0.6-0.2,1.2-0.5,1.5c-0.4,0.4-0.9,0.6-1.5,0.6s-1.2-0.2-1.5-0.6C154.9,319,154.7,318.5,154.7,317.8z"/>
</g>
</svg>
