<?xml version="1.0" encoding="utf-8"?>
<!-- Generator: Adobe Illustrator 22.1.0, SVG Export Plug-In . SVG Version: 6.00 Build 0)  -->
<svg version="1.1" id="Layer_1" xmlns="http://www.w3.org/2000/svg" xmlns:xlink="http://www.w3.org/1999/xlink" x="0px" y="0px"
	 viewBox="0 0 640 480" style="enable-background:new 0 0 640 480;" xml:space="preserve">
<style type="text/css">
	.st0{fill:#58595B;}
</style>
<g>
	<path class="st0" d="M26.8,389.5v-20h3.3v17.2h8.5v2.8H26.8z"/>
	<path class="st0" d="M41,370.4c0-0.6,0.2-1,0.5-1.3s0.8-0.5,1.3-0.5c0.6,0,1,0.2,1.3,0.5s0.5,0.8,0.5,1.3c0,0.5-0.2,1-0.5,1.3
		s-0.8,0.5-1.3,0.5c-0.6,0-1-0.2-1.3-0.5S41,370.9,41,370.4z M44.4,389.5h-3.2v-15.1h3.2V389.5z"/>
	<path class="st0" d="M56.1,376.8h-3.7v12.7h-3.2v-12.7h-2.5v-1.5l2.5-1v-1c0-1.8,0.4-3.1,1.3-4c0.8-0.9,2.1-1.3,3.8-1.3
		c1.1,0,2.2,0.2,3.3,0.6l-0.8,2.4c-0.8-0.3-1.5-0.4-2.3-0.4c-0.7,0-1.3,0.2-1.6,0.7c-0.3,0.5-0.5,1.1-0.5,2v1h3.7V376.8z"/>
	<path class="st0" d="M64.9,389.8c-2.4,0-4.2-0.7-5.5-2.1s-2-3.3-2-5.7c0-2.5,0.6-4.4,1.8-5.8s2.9-2.1,5.1-2.1c2,0,3.6,0.6,4.7,1.8
		c1.2,1.2,1.7,2.9,1.7,5v1.7H60.7c0,1.5,0.4,2.6,1.2,3.4c0.7,0.8,1.8,1.2,3.2,1.2c0.9,0,1.7-0.1,2.5-0.3c0.8-0.2,1.6-0.4,2.5-0.8
		v2.6c-0.8,0.4-1.6,0.6-2.4,0.8C66.8,389.7,65.9,389.8,64.9,389.8z M64.3,376.6c-1,0-1.8,0.3-2.5,1s-1,1.6-1.1,2.8h6.9
		c0-1.2-0.3-2.2-0.9-2.8C66.1,376.9,65.3,376.6,64.3,376.6z"/>
	<path class="st0" d="M81,370.4c0-0.6,0.2-1,0.5-1.3s0.8-0.5,1.3-0.5c0.6,0,1,0.2,1.3,0.5s0.5,0.8,0.5,1.3c0,0.5-0.2,1-0.5,1.3
		s-0.8,0.5-1.3,0.5c-0.6,0-1-0.2-1.3-0.5S81,370.9,81,370.4z M84.4,389.5h-3.2v-15.1h3.2V389.5z"/>
	<path class="st0" d="M101.7,389.5h-3.2v-9.3c0-1.2-0.2-2-0.7-2.6c-0.5-0.6-1.2-0.9-2.2-0.9c-1.4,0-2.4,0.4-3,1.2s-0.9,2.1-0.9,4
		v7.5h-3.2v-15.1h2.5l0.5,2h0.2c0.5-0.7,1.1-1.3,1.9-1.7c0.8-0.4,1.8-0.6,2.8-0.6c3.6,0,5.4,1.8,5.4,5.5V389.5z"/>
	<path class="st0" d="M115.9,385.2c0,1.5-0.5,2.6-1.6,3.4c-1.1,0.8-2.6,1.2-4.6,1.2c-2,0-3.6-0.3-4.9-0.9v-2.8
		c1.8,0.8,3.4,1.2,5,1.2c2,0,3-0.6,3-1.8c0-0.4-0.1-0.7-0.3-1s-0.6-0.5-1.1-0.8c-0.5-0.3-1.2-0.6-2.1-0.9c-1.7-0.7-2.9-1.3-3.5-2
		s-0.9-1.5-0.9-2.6c0-1.3,0.5-2.3,1.6-3c1-0.7,2.5-1.1,4.3-1.1c1.8,0,3.5,0.4,5,1.1l-1,2.4c-1.6-0.7-3-1-4.1-1
		c-1.7,0-2.5,0.5-2.5,1.4c0,0.5,0.2,0.9,0.7,1.2c0.4,0.3,1.4,0.8,2.9,1.4c1.2,0.5,2.2,0.9,2.7,1.3c0.6,0.4,1,0.9,1.3,1.4
		S115.9,384.5,115.9,385.2z"/>
	<path class="st0" d="M129.5,389.5l-0.5-2h-0.2c-0.4,0.7-1.1,1.3-1.9,1.7c-0.8,0.4-1.8,0.6-2.8,0.6c-1.8,0-3.2-0.5-4.1-1.4
		s-1.4-2.3-1.4-4.1v-9.9h3.2v9.3c0,1.2,0.2,2,0.7,2.6c0.5,0.6,1.2,0.9,2.2,0.9c1.3,0,2.3-0.4,3-1.2c0.6-0.8,1-2.2,1-4.1v-7.5h3.2
		v15.1H129.5z"/>
	<path class="st0" d="M143.7,374.1c0.6,0,1.2,0,1.6,0.1l-0.3,3c-0.5-0.1-0.9-0.2-1.4-0.2c-1.3,0-2.3,0.4-3.1,1.3
		c-0.8,0.8-1.2,1.9-1.2,3.3v7.9h-3.2v-15.1h2.5l0.4,2.7h0.2c0.5-0.9,1.2-1.6,2-2.1S142.8,374.1,143.7,374.1z"/>
	<path class="st0" d="M156.9,389.5l-0.6-2.1h-0.1c-0.7,0.9-1.5,1.5-2.2,1.9s-1.7,0.5-2.8,0.5c-1.5,0-2.6-0.4-3.5-1.2
		s-1.3-1.9-1.3-3.4c0-1.6,0.6-2.7,1.7-3.5c1.2-0.8,2.9-1.2,5.3-1.3l2.6-0.1v-0.8c0-1-0.2-1.7-0.7-2.2s-1.2-0.7-2.1-0.7
		c-0.8,0-1.5,0.1-2.2,0.3s-1.4,0.5-2.1,0.8l-1-2.3c0.8-0.4,1.7-0.8,2.7-1c1-0.2,1.9-0.3,2.8-0.3c1.9,0,3.4,0.4,4.4,1.3
		c1,0.8,1.5,2.2,1.5,4v10.2H156.9z M152.1,387.3c1.2,0,2.1-0.3,2.8-1c0.7-0.7,1.1-1.6,1.1-2.7v-1.3l-1.9,0.1
		c-1.5,0.1-2.6,0.3-3.3,0.8c-0.7,0.5-1,1.1-1,2.1c0,0.7,0.2,1.2,0.6,1.6C150.7,387.1,151.3,387.3,152.1,387.3z"/>
	<path class="st0" d="M176.4,389.5h-3.2v-9.3c0-1.2-0.2-2-0.7-2.6c-0.5-0.6-1.2-0.9-2.2-0.9c-1.4,0-2.4,0.4-3,1.2s-0.9,2.1-0.9,4
		v7.5h-3.2v-15.1h2.5l0.5,2h0.2c0.5-0.7,1.1-1.3,1.9-1.7c0.8-0.4,1.8-0.6,2.8-0.6c3.6,0,5.4,1.8,5.4,5.5V389.5z"/>
	<path class="st0" d="M186.5,389.8c-2.3,0-4-0.7-5.2-2s-1.8-3.3-1.8-5.7c0-2.5,0.6-4.5,1.9-5.9s3-2.1,5.4-2.1c1.6,0,3,0.3,4.3,0.9
		l-1,2.6c-1.4-0.5-2.5-0.8-3.4-0.8c-2.6,0-3.9,1.7-3.9,5.2c0,1.7,0.3,3,1,3.8c0.7,0.9,1.6,1.3,2.9,1.3c1.4,0,2.8-0.4,4.1-1.1v2.8
		c-0.6,0.3-1.2,0.6-1.8,0.7C188.2,389.7,187.4,389.8,186.5,389.8z"/>
	<path class="st0" d="M200.2,389.8c-2.4,0-4.2-0.7-5.5-2.1s-2-3.3-2-5.7c0-2.5,0.6-4.4,1.8-5.8s2.9-2.1,5.1-2.1c2,0,3.6,0.6,4.7,1.8
		c1.2,1.2,1.7,2.9,1.7,5v1.7H196c0,1.5,0.4,2.6,1.2,3.4c0.7,0.8,1.8,1.2,3.2,1.2c0.9,0,1.7-0.1,2.5-0.3c0.8-0.2,1.6-0.4,2.5-0.8v2.6
		c-0.8,0.4-1.6,0.6-2.4,0.8C202.1,389.7,201.2,389.8,200.2,389.8z M199.6,376.6c-1,0-1.8,0.3-2.5,1s-1,1.6-1.1,2.8h6.9
		c0-1.2-0.3-2.2-0.9-2.8C201.4,376.9,200.6,376.6,199.6,376.6z"/>
</g>
<g>
	<path class="st0" d="M34,408.8h-3.7v12.7h-3.2v-12.7h-2.5v-1.5l2.5-1v-1c0-1.8,0.4-3.1,1.3-4c0.8-0.9,2.1-1.3,3.8-1.3
		c1.1,0,2.2,0.2,3.3,0.6l-0.8,2.4c-0.8-0.3-1.5-0.4-2.3-0.4c-0.7,0-1.3,0.2-1.6,0.7c-0.3,0.5-0.5,1.1-0.5,2v1H34V408.8z"/>
	<path class="st0" d="M44,406.1c0.6,0,1.2,0,1.6,0.1l-0.3,3c-0.5-0.1-0.9-0.2-1.4-0.2c-1.3,0-2.3,0.4-3.1,1.3
		c-0.8,0.8-1.2,1.9-1.2,3.3v7.9h-3.2v-15.1h2.5l0.4,2.7h0.2c0.5-0.9,1.2-1.6,2-2.1S43,406.1,44,406.1z"/>
	<path class="st0" d="M61.2,413.9c0,2.5-0.6,4.4-1.9,5.8c-1.3,1.4-3,2.1-5.3,2.1c-1.4,0-2.7-0.3-3.7-1c-1.1-0.6-1.9-1.6-2.5-2.7
		c-0.6-1.2-0.9-2.6-0.9-4.2c0-2.5,0.6-4.4,1.9-5.7s3-2.1,5.3-2.1c2.2,0,3.9,0.7,5.2,2.1C60.6,409.6,61.2,411.5,61.2,413.9z
		 M50.2,413.9c0,3.5,1.3,5.2,3.9,5.2c2.6,0,3.8-1.7,3.8-5.2c0-3.5-1.3-5.2-3.9-5.2c-1.3,0-2.3,0.4-2.9,1.3
		C50.5,411,50.2,412.3,50.2,413.9z"/>
	<path class="st0" d="M77.2,421.5h-3.2v-9.3c0-1.2-0.2-2-0.7-2.6s-1.1-0.9-2.1-0.9c-1.2,0-2.1,0.4-2.7,1.2c-0.6,0.8-0.9,2.1-0.9,4
		v7.5h-3.2v-15.1h2.5l0.5,2h0.2c0.4-0.7,1-1.3,1.8-1.7c0.8-0.4,1.7-0.6,2.6-0.6c2.3,0,3.9,0.8,4.6,2.4h0.2c0.4-0.7,1.1-1.3,1.9-1.8
		c0.8-0.4,1.7-0.6,2.8-0.6c1.8,0,3.1,0.5,3.9,1.4c0.8,0.9,1.2,2.3,1.2,4.2v9.9h-3.2v-9.3c0-1.2-0.2-2-0.7-2.6
		c-0.4-0.6-1.1-0.9-2.1-0.9c-1.2,0-2.2,0.4-2.7,1.2c-0.6,0.8-0.9,2-0.9,3.6V421.5z"/>
	<path class="st0" d="M106.9,421.5l-5.8-16.7H101c0.2,2.5,0.2,4.8,0.2,7v9.7h-3v-20h4.6l5.6,15.9h0.1l5.7-15.9h4.6v20h-3.1v-9.9
		c0-1,0-2.3,0.1-3.9c0-1.6,0.1-2.6,0.1-2.9h-0.1l-6,16.7H106.9z"/>
	<path class="st0" d="M123.6,401.5h5.9c2.8,0,4.7,0.4,6,1.2c1.2,0.8,1.8,2.1,1.8,3.8c0,1.2-0.3,2.1-0.9,2.9s-1.5,1.3-2.6,1.5v0.1
		c1.4,0.3,2.4,0.8,3.1,1.6c0.7,0.8,1,1.8,1,3.2c0,1.8-0.6,3.2-1.9,4.2c-1.3,1-3,1.5-5.2,1.5h-7.2V401.5z M126.9,409.8h3.1
		c1.4,0,2.4-0.2,3-0.6s0.9-1.2,0.9-2.2c0-0.9-0.3-1.6-1-2c-0.7-0.4-1.8-0.6-3.2-0.6h-2.8V409.8z M126.9,412.4v6.3h3.5
		c1.4,0,2.4-0.3,3.1-0.8s1-1.4,1-2.5c0-1-0.4-1.8-1.1-2.3s-1.8-0.8-3.2-0.8H126.9z"/>
	<path class="st0" d="M154.2,421.5l-2-5.6h-7.6l-2,5.6h-3.4l7.5-20.1h3.6l7.5,20.1H154.2z M151.4,413.2l-1.9-5.4
		c-0.1-0.4-0.3-0.9-0.6-1.7c-0.2-0.8-0.4-1.4-0.5-1.7c-0.2,1.1-0.6,2.3-1.1,3.7l-1.8,5.2H151.4z"/>
</g>
</svg>
