<?xml version="1.0" encoding="utf-8"?>
<!-- Generator: Adobe Illustrator 22.1.0, SVG Export Plug-In . SVG Version: 6.00 Build 0)  -->
<svg version="1.1" id="Layer_1" xmlns="http://www.w3.org/2000/svg" xmlns:xlink="http://www.w3.org/1999/xlink" x="0px" y="0px"
	 viewBox="0 0 173 33.8" style="enable-background:new 0 0 173 33.8;" xml:space="preserve">
<style type="text/css">
	.st0{fill:#F78E1E;}
	.st1{fill:#FFFFFF;}
</style>
<path class="st0" d="M5.4,0C5.4,0,0,0,0,5.4v22.9c0,0,0,5.4,5.4,5.4h162.2c0,0,5.4,0,5.4-5.4V5.4c0,0,0-5.4-5.4-5.4H5.4z"/>
<g>
	<path class="st1" d="M16.3,23.1h-2V11h6.8v1.7h-4.8v3.8h4.5v1.7h-4.5V23.1z"/>
	<path class="st1" d="M23.4,23.1V11h2v12H23.4z"/>
	<path class="st1" d="M38.6,23.1h-2.4l-5.9-9.6h-0.1l0,0.5c0.1,1,0.1,2,0.1,2.8v6.3h-1.8V11h2.4l5.9,9.6h0c0-0.1,0-0.6-0.1-1.4
		c0-0.8,0-1.4,0-1.9V11h1.8V23.1z"/>
	<path class="st1" d="M51.5,16.9c0,2-0.6,3.5-1.7,4.6c-1.1,1.1-2.7,1.6-4.8,1.6h-3.4V11h3.7c1.9,0,3.4,0.5,4.5,1.5
		C51,13.6,51.5,15.1,51.5,16.9z M49.5,17c0-2.9-1.3-4.3-4-4.3h-1.7v8.7h1.4C48,21.4,49.5,20,49.5,17z"/>
	<path class="st1" d="M69.2,17c0,2-0.5,3.5-1.5,4.6s-2.4,1.6-4.2,1.6c-1.8,0-3.2-0.5-4.2-1.6c-1-1.1-1.5-2.6-1.5-4.6
		s0.5-3.5,1.5-4.6c1-1.1,2.4-1.6,4.2-1.6c1.8,0,3.2,0.5,4.2,1.6C68.7,13.5,69.2,15.1,69.2,17z M60,17c0,1.5,0.3,2.6,0.9,3.4
		c0.6,0.8,1.5,1.1,2.7,1.1c1.2,0,2.1-0.4,2.6-1.1c0.6-0.8,0.9-1.9,0.9-3.4c0-1.5-0.3-2.6-0.9-3.4c-0.6-0.8-1.5-1.1-2.6-1.1
		c-1.2,0-2.1,0.4-2.7,1.1C60.3,14.4,60,15.6,60,17z"/>
	<path class="st1" d="M81.2,11v7.8c0,0.9-0.2,1.7-0.6,2.3c-0.4,0.7-0.9,1.2-1.7,1.5c-0.7,0.4-1.6,0.5-2.6,0.5
		c-1.5,0-2.7-0.4-3.5-1.2c-0.8-0.8-1.2-1.9-1.2-3.3V11h2v7.6c0,1,0.2,1.7,0.7,2.2c0.5,0.5,1.2,0.7,2.1,0.7c1.9,0,2.8-1,2.8-2.9V11
		H81.2z"/>
	<path class="st1" d="M88.5,23.1h-2V12.7H83V11H92v1.7h-3.5V23.1z"/>
	<path class="st1" d="M107.8,23.1h-2v-5.4h-5.6v5.4h-2V11h2V16h5.6V11h2V23.1z"/>
	<path class="st1" d="M121.6,17c0,2-0.5,3.5-1.5,4.6s-2.4,1.6-4.2,1.6c-1.8,0-3.2-0.5-4.2-1.6c-1-1.1-1.5-2.6-1.5-4.6
		s0.5-3.5,1.5-4.6c1-1.1,2.4-1.6,4.2-1.6c1.8,0,3.2,0.5,4.2,1.6C121.1,13.5,121.6,15.1,121.6,17z M112.4,17c0,1.5,0.3,2.6,0.9,3.4
		c0.6,0.8,1.5,1.1,2.7,1.1c1.2,0,2.1-0.4,2.6-1.1c0.6-0.8,0.9-1.9,0.9-3.4c0-1.5-0.3-2.6-0.9-3.4c-0.6-0.8-1.5-1.1-2.6-1.1
		c-1.2,0-2.1,0.4-2.7,1.1C112.7,14.4,112.4,15.6,112.4,17z"/>
	<path class="st1" d="M135.3,23.1h-2.1l-2-7.2c-0.1-0.3-0.2-0.8-0.3-1.4c-0.1-0.6-0.2-1-0.2-1.2c-0.1,0.4-0.1,0.8-0.3,1.4
		c-0.1,0.6-0.2,1-0.3,1.3l-2,7.2h-2.1l-1.6-6l-1.6-6h2l1.7,7c0.3,1.1,0.5,2.1,0.6,3c0.1-0.5,0.2-1,0.3-1.6c0.1-0.6,0.2-1,0.3-1.4
		l2-7h2l2,7.1c0.2,0.7,0.4,1.6,0.6,2.9c0.1-0.8,0.3-1.8,0.6-3l1.7-7h2L135.3,23.1z"/>
</g>
</svg>
