<?xml version="1.0" encoding="utf-8"?>
<!-- Generator: Adobe Illustrator 22.1.0, SVG Export Plug-In . SVG Version: 6.00 Build 0)  -->
<svg version="1.1" id="Layer_1" xmlns="http://www.w3.org/2000/svg" xmlns:xlink="http://www.w3.org/1999/xlink" x="0px" y="0px"
	 viewBox="0 0 154.4 108.6" style="enable-background:new 0 0 154.4 108.6;" xml:space="preserve">
<style type="text/css">
	.st0{fill:#EAEBEC;}
	.st1{fill:#002F87;}
	.st2{fill:#58595B;}
	.st3{fill:none;}
</style>
<rect class="st0" width="154.4" height="108.6"/>
<polygon class="st1" points="46.8,15.3 36.6,31.7 26.4,15.3 17.2,15.3 17.2,54.1 25.5,54.1 25.5,28.9 36.3,45.3 36.6,45.3 
	47.5,28.8 47.5,54.1 55.9,54.1 55.9,15.3 "/>
<path class="st1" d="M81.5,54.1H63V15.3h18c7.9,0,12.8,3.9,12.8,10v0.1c0,4.4-2.3,6.8-5.1,8.4c4.5,1.7,7.3,4.3,7.3,9.5v0.1
	C96,50.5,90.2,54.1,81.5,54.1 M85.3,26.8c0-2.5-2-4-5.6-4h-8.4V31h7.9c3.8,0,6.1-1.2,6.1-4.1V26.8z M87.5,42.3
	c0-2.6-1.9-4.2-6.3-4.2h-9.9v8.5h10.1c3.8,0,6-1.3,6-4.2V42.3z"/>
<path class="st1" d="M128.4,54.1l-3.5-8.7h-16.4l-3.5,8.7h-8.7l16.6-39h7.9l16.6,39H128.4z M116.6,25.3l-5.2,12.6h10.3L116.6,25.3z"
	/>
<polygon class="st2" points="17.2,58.5 30.8,58.5 30.8,61.4 20.4,61.4 20.4,66.4 29.6,66.4 29.6,69.3 20.4,69.3 20.4,76.8 
	17.2,76.8 "/>
<polygon class="st2" points="33.7,58.5 47.3,58.5 47.3,61.4 37,61.4 37,66.1 46.1,66.1 46.1,69 37,69 37,73.9 47.4,73.9 47.4,76.8 
	33.7,76.8 "/>
<path class="st2" d="M50.7,58.5h6.8c5.7,0,9.7,3.9,9.7,9.1v0.1c0,5.1-4,9.1-9.7,9.1h-6.8V58.5z M53.9,61.4v12.4h3.6
	c3.8,0,6.3-2.6,6.3-6.2v-0.1c0-3.6-2.5-6.2-6.3-6.2H53.9z"/>
<polygon class="st2" points="70.4,58.5 84,58.5 84,61.4 73.6,61.4 73.6,66.1 82.8,66.1 82.8,69 73.6,69 73.6,73.9 84.1,73.9 
	84.1,76.8 70.4,76.8 "/>
<path class="st2" d="M87.6,58.5h8.1c2.3,0,4.1,0.7,5.3,1.8c1,1,1.5,2.3,1.5,3.9v0.1c0,3-1.8,4.8-4.3,5.5l4.9,6.9h-3.8l-4.5-6.4h-4
	v6.4h-3.2V58.5z M95.5,67.6c2.3,0,3.8-1.2,3.8-3v-0.1c0-2-1.4-3-3.8-3h-4.7v6.1H95.5z"/>
<path class="st2" d="M111.8,58.4h3l8,18.4h-3.4l-1.9-4.4h-8.6l-1.9,4.4h-3.3L111.8,58.4z M116.4,69.5l-3.2-7.3l-3.1,7.3H116.4z"/>
<polygon class="st2" points="124.2,58.5 127.4,58.5 127.4,73.9 137,73.9 137,76.8 124.2,76.8 "/>
<polygon class="st2" points="17.2,80.9 18.6,80.9 18.6,92.1 25.7,92.1 25.7,93.4 17.2,93.4 "/>
<path class="st2" d="M28.1,80.6h1.6v1.5h-1.6V80.6z M28.2,84.1h1.4v9.2h-1.4V84.1z"/>
<path class="st2" d="M33.2,85.3H32v-1.2h1.3v-0.8c0-1.1,0.3-1.9,0.8-2.4c0.5-0.5,1.1-0.7,2-0.7c0.6,0,1.1,0.1,1.5,0.2v1.2
	c-0.5-0.1-0.9-0.2-1.3-0.2c-1.1,0-1.6,0.6-1.6,2v0.8h2.9v1.2h-2.9v8h-1.4V85.3z"/>
<path class="st2" d="M38.2,88.8L38.2,88.8c0-2.7,1.9-4.8,4.4-4.8c2.7,0,4.3,2.2,4.3,4.9c0,0.2,0,0.3,0,0.4h-7.3
	c0.2,2,1.6,3.1,3.3,3.1c1.3,0,2.2-0.5,2.9-1.3l0.9,0.8c-0.9,1-2.1,1.7-3.8,1.7C40.3,93.6,38.2,91.6,38.2,88.8 M45.5,88.2
	c-0.1-1.7-1.1-3.1-3-3.1c-1.6,0-2.8,1.3-3,3.1H45.5z"/>
<rect x="55.1" y="80.9" class="st2" width="1.4" height="12.5"/>
<path class="st2" d="M59.9,84.1h1.4v1.6c0.6-1,1.6-1.8,3.2-1.8c2.2,0,3.5,1.5,3.5,3.7v5.7h-1.4V88c0-1.7-0.9-2.8-2.6-2.8
	c-1.6,0-2.8,1.2-2.8,2.9v5.3h-1.4V84.1z"/>
<path class="st2" d="M70.2,92.2l0.7-1c1,0.8,2.1,1.2,3.2,1.2c1.1,0,1.9-0.6,1.9-1.5v0c0-0.9-1.1-1.3-2.3-1.6
	c-1.4-0.4-3.1-0.9-3.1-2.6v0c0-1.6,1.3-2.6,3.1-2.6c1.1,0,2.4,0.4,3.3,1l-0.6,1c-0.9-0.6-1.8-0.9-2.7-0.9c-1.1,0-1.8,0.6-1.8,1.3v0
	c0,0.9,1.1,1.2,2.4,1.6c1.4,0.4,3,1,3,2.6v0c0,1.8-1.4,2.8-3.3,2.8C72.7,93.5,71.2,93,70.2,92.2"/>
<path class="st2" d="M79.7,89.9v-5.7h1.4v5.4c0,1.7,0.9,2.8,2.6,2.8c1.6,0,2.8-1.2,2.8-2.9v-5.3h1.4v9.2h-1.4v-1.6
	c-0.6,1-1.6,1.8-3.2,1.8C81,93.6,79.7,92.1,79.7,89.9"/>
<path class="st2" d="M90.8,84.1h1.4v2.4c0.7-1.5,2-2.6,3.8-2.6v1.5h-0.1c-2,0-3.7,1.4-3.7,4.2v3.7h-1.4V84.1z"/>
<path class="st2" d="M96.7,90.7L96.7,90.7c0-2,1.6-3,4-3c1.2,0,2,0.2,2.8,0.4v-0.3c0-1.7-1-2.5-2.8-2.5c-1.1,0-1.9,0.3-2.8,0.7
	l-0.4-1.1c1-0.5,2-0.8,3.4-0.8c1.3,0,2.3,0.3,3,1c0.6,0.6,0.9,1.5,0.9,2.7v5.7h-1.3V92c-0.6,0.8-1.7,1.6-3.3,1.6
	C98.4,93.6,96.7,92.6,96.7,90.7 M103.5,90v-0.9c-0.7-0.2-1.6-0.4-2.7-0.4c-1.7,0-2.7,0.8-2.7,1.9v0c0,1.2,1.1,1.8,2.3,1.8
	C102.1,92.5,103.5,91.4,103.5,90"/>
<path class="st2" d="M107.7,84.1h1.4v1.6c0.6-1,1.6-1.8,3.2-1.8c2.2,0,3.5,1.5,3.5,3.7v5.7h-1.4V88c0-1.7-0.9-2.8-2.6-2.8
	c-1.6,0-2.8,1.2-2.8,2.9v5.3h-1.4V84.1z"/>
<path class="st2" d="M118.2,88.8L118.2,88.8c0-2.6,2-4.9,4.7-4.9c1.8,0,2.8,0.7,3.7,1.6l-0.9,1c-0.7-0.8-1.6-1.4-2.8-1.4
	c-1.9,0-3.3,1.6-3.3,3.6v0c0,2,1.5,3.6,3.4,3.6c1.2,0,2.1-0.6,2.8-1.4l0.9,0.8c-0.9,1-2,1.8-3.8,1.8
	C120.2,93.6,118.2,91.4,118.2,88.8"/>
<path class="st2" d="M128.1,88.8L128.1,88.8c0-2.7,1.9-4.8,4.4-4.8c2.7,0,4.3,2.2,4.3,4.9c0,0.2,0,0.3,0,0.4h-7.3
	c0.2,2,1.6,3.1,3.3,3.1c1.3,0,2.2-0.5,2.9-1.3l0.9,0.8c-0.9,1-2.1,1.7-3.8,1.7C130.2,93.6,128.1,91.6,128.1,88.8 M135.5,88.2
	c-0.1-1.7-1.1-3.1-3-3.1c-1.6,0-2.8,1.3-3,3.1H135.5z"/>
<rect x="17.2" y="15" class="st3" width="120.1" height="78.6"/>
</svg>
