<svg id="Layer_1" xmlns="http://www.w3.org/2000/svg" viewBox="0 0 640 480"><style>.st0{fill:#58595b}</style><path class="st0" d="M26.8 389.5v-20h3.3v17.2h8.5v2.8H26.8zM41 370.4c0-.6.2-1 .5-1.3s.8-.5 1.3-.5c.6 0 1 .2 1.3.5s.5.8.5 1.3-.2 1-.5 1.3-.8.5-1.3.5c-.6 0-1-.2-1.3-.5s-.5-.8-.5-1.3zm3.4 19.1h-3.2v-15.1h3.2v15.1zM56.1 376.8h-3.7v12.7h-3.2v-12.7h-2.5v-1.5l2.5-1v-1c0-1.8.4-3.1 1.3-4 .8-.9 2.1-1.3 3.8-1.3 1.1 0 2.2.2 3.3.6l-.8 2.4c-.8-.3-1.5-.4-2.3-.4-.7 0-1.3.2-1.6.7-.3.5-.5 1.1-.5 2v1h3.7v2.5zM64.9 389.8c-2.4 0-4.2-.7-5.5-2.1s-2-3.3-2-5.7c0-2.5.6-4.4 1.8-5.8s2.9-2.1 5.1-2.1c2 0 3.6.6 4.7 1.8 1.2 1.2 1.7 2.9 1.7 5v1.7h-10c0 1.5.4 2.6 1.2 3.4.7.8 1.8 1.2 3.2 1.2.9 0 1.7-.1 2.5-.3.8-.2 1.6-.4 2.5-.8v2.6c-.8.4-1.6.6-2.4.8-.9.2-1.8.3-2.8.3zm-.6-13.2c-1 0-1.8.3-2.5 1s-1 1.6-1.1 2.8h6.9c0-1.2-.3-2.2-.9-2.8-.6-.7-1.4-1-2.4-1zM81 370.4c0-.6.2-1 .5-1.3s.8-.5 1.3-.5c.6 0 1 .2 1.3.5s.5.8.5 1.3-.2 1-.5 1.3-.8.5-1.3.5c-.6 0-1-.2-1.3-.5s-.5-.8-.5-1.3zm3.4 19.1h-3.2v-15.1h3.2v15.1zM101.7 389.5h-3.2v-9.3c0-1.2-.2-2-.7-2.6-.5-.6-1.2-.9-2.2-.9-1.4 0-2.4.4-3 1.2s-.9 2.1-.9 4v7.5h-3.2v-15.1H91l.5 2h.2c.5-.7 1.1-1.3 1.9-1.7.8-.4 1.8-.6 2.8-.6 3.6 0 5.4 1.8 5.4 5.5v10zM115.9 385.2c0 1.5-.5 2.6-1.6 3.4-1.1.8-2.6 1.2-4.6 1.2-2 0-3.6-.3-4.9-.9v-2.8c1.8.8 3.4 1.2 5 1.2 2 0 3-.6 3-1.8 0-.4-.1-.7-.3-1s-.6-.5-1.1-.8c-.5-.3-1.2-.6-2.1-.9-1.7-.7-2.9-1.3-3.5-2s-.9-1.5-.9-2.6c0-1.3.5-2.3 1.6-3 1-.7 2.5-1.1 4.3-1.1 1.8 0 3.5.4 5 1.1l-1 2.4c-1.6-.7-3-1-4.1-1-1.7 0-2.5.5-2.5 1.4 0 .5.2.9.7 1.2.4.3 1.4.8 2.9 1.4 1.2.5 2.2.9 2.7 1.3.6.4 1 .9 1.3 1.4s.1 1.2.1 1.9zM129.5 389.5l-.5-2h-.2c-.4.7-1.1 1.3-1.9 1.7-.8.4-1.8.6-2.8.6-1.8 0-3.2-.5-4.1-1.4s-1.4-2.3-1.4-4.1v-9.9h3.2v9.3c0 1.2.2 2 .7 2.6.5.6 1.2.9 2.2.9 1.3 0 2.3-.4 3-1.2.6-.8 1-2.2 1-4.1v-7.5h3.2v15.1h-2.4zM143.7 374.1c.6 0 1.2 0 1.6.1l-.3 3c-.5-.1-.9-.2-1.4-.2-1.3 0-2.3.4-3.1 1.3-.8.8-1.2 1.9-1.2 3.3v7.9h-3.2v-15.1h2.5l.4 2.7h.2c.5-.9 1.2-1.6 2-2.1s1.6-.9 2.5-.9zM156.9 389.5l-.6-2.1h-.1c-.7.9-1.5 1.5-2.2 1.9s-1.7.5-2.8.5c-1.5 0-2.6-.4-3.5-1.2s-1.3-1.9-1.3-3.4c0-1.6.6-2.7 1.7-3.5 1.2-.8 2.9-1.2 5.3-1.3l2.6-.1v-.8c0-1-.2-1.7-.7-2.2s-1.2-.7-2.1-.7c-.8 0-1.5.1-2.2.3s-1.4.5-2.1.8l-1-2.3c.8-.4 1.7-.8 2.7-1 1-.2 1.9-.3 2.8-.3 1.9 0 3.4.4 4.4 1.3 1 .8 1.5 2.2 1.5 4v10.2h-2.4zm-4.8-2.2c1.2 0 2.1-.3 2.8-1 .7-.7 1.1-1.6 1.1-2.7v-1.3l-1.9.1c-1.5.1-2.6.3-3.3.8-.7.5-1 1.1-1 2.1 0 .7.2 1.2.6 1.6.3.2.9.4 1.7.4zM176.4 389.5h-3.2v-9.3c0-1.2-.2-2-.7-2.6-.5-.6-1.2-.9-2.2-.9-1.4 0-2.4.4-3 1.2s-.9 2.1-.9 4v7.5h-3.2v-15.1h2.5l.5 2h.2c.5-.7 1.1-1.3 1.9-1.7.8-.4 1.8-.6 2.8-.6 3.6 0 5.4 1.8 5.4 5.5v10zM186.5 389.8c-2.3 0-4-.7-5.2-2s-1.8-3.3-1.8-5.7c0-2.5.6-4.5 1.9-5.9s3-2.1 5.4-2.1c1.6 0 3 .3 4.3.9l-1 2.6c-1.4-.5-2.5-.8-3.4-.8-2.6 0-3.9 1.7-3.9 5.2 0 1.7.3 3 1 3.8.7.9 1.6 1.3 2.9 1.3 1.4 0 2.8-.4 4.1-1.1v2.8c-.6.3-1.2.6-1.8.7-.8.2-1.6.3-2.5.3zM200.2 389.8c-2.4 0-4.2-.7-5.5-2.1s-2-3.3-2-5.7c0-2.5.6-4.4 1.8-5.8s2.9-2.1 5.1-2.1c2 0 3.6.6 4.7 1.8 1.2 1.2 1.7 2.9 1.7 5v1.7h-10c0 1.5.4 2.6 1.2 3.4.7.8 1.8 1.2 3.2 1.2.9 0 1.7-.1 2.5-.3.8-.2 1.6-.4 2.5-.8v2.6c-.8.4-1.6.6-2.4.8-.9.2-1.8.3-2.8.3zm-.6-13.2c-1 0-1.8.3-2.5 1s-1 1.6-1.1 2.8h6.9c0-1.2-.3-2.2-.9-2.8-.6-.7-1.4-1-2.4-1z"/><g><path class="st0" d="M34 408.8h-3.7v12.7h-3.2v-12.7h-2.5v-1.5l2.5-1v-1c0-1.8.4-3.1 1.3-4 .8-.9 2.1-1.3 3.8-1.3 1.1 0 2.2.2 3.3.6l-.8 2.4c-.8-.3-1.5-.4-2.3-.4-.7 0-1.3.2-1.6.7-.3.5-.5 1.1-.5 2v1H34v2.5zM44 406.1c.6 0 1.2 0 1.6.1l-.3 3c-.5-.1-.9-.2-1.4-.2-1.3 0-2.3.4-3.1 1.3-.8.8-1.2 1.9-1.2 3.3v7.9h-3.2v-15.1h2.5l.4 2.7h.2c.5-.9 1.2-1.6 2-2.1s1.5-.9 2.5-.9zM61.2 413.9c0 2.5-.6 4.4-1.9 5.8-1.3 1.4-3 2.1-5.3 2.1-1.4 0-2.7-.3-3.7-1-1.1-.6-1.9-1.6-2.5-2.7-.6-1.2-.9-2.6-.9-4.2 0-2.5.6-4.4 1.9-5.7s3-2.1 5.3-2.1c2.2 0 3.9.7 5.2 2.1 1.3 1.4 1.9 3.3 1.9 5.7zm-11 0c0 3.5 1.3 5.2 3.9 5.2 2.6 0 3.8-1.7 3.8-5.2s-1.3-5.2-3.9-5.2c-1.3 0-2.3.4-2.9 1.3-.6 1-.9 2.3-.9 3.9zM77.2 421.5H74v-9.3c0-1.2-.2-2-.7-2.6s-1.1-.9-2.1-.9c-1.2 0-2.1.4-2.7 1.2-.6.8-.9 2.1-.9 4v7.5h-3.2v-15.1h2.5l.5 2h.2c.4-.7 1-1.3 1.8-1.7.8-.4 1.7-.6 2.6-.6 2.3 0 3.9.8 4.6 2.4h.2c.4-.7 1.1-1.3 1.9-1.8.8-.4 1.7-.6 2.8-.6 1.8 0 3.1.5 3.9 1.4.8.9 1.2 2.3 1.2 4.2v9.9h-3.2v-9.3c0-1.2-.2-2-.7-2.6-.4-.6-1.1-.9-2.1-.9-1.2 0-2.2.4-2.7 1.2-.6.8-.9 2-.9 3.6v8zM106.9 421.5l-5.8-16.7h-.1c.2 2.5.2 4.8.2 7v9.7h-3v-20h4.6l5.6 15.9h.1l5.7-15.9h4.6v20h-3.1v-9.9c0-1 0-2.3.1-3.9 0-1.6.1-2.6.1-2.9h-.1l-6 16.7h-2.9zM123.6 401.5h5.9c2.8 0 4.7.4 6 1.2 1.2.8 1.8 2.1 1.8 3.8 0 1.2-.3 2.1-.9 2.9s-1.5 1.3-2.6 1.5v.1c1.4.3 2.4.8 3.1 1.6.7.8 1 1.8 1 3.2 0 1.8-.6 3.2-1.9 4.2-1.3 1-3 1.5-5.2 1.5h-7.2v-20zm3.3 8.3h3.1c1.4 0 2.4-.2 3-.6s.9-1.2.9-2.2c0-.9-.3-1.6-1-2-.7-.4-1.8-.6-3.2-.6h-2.8v5.4zm0 2.6v6.3h3.5c1.4 0 2.4-.3 3.1-.8s1-1.4 1-2.5c0-1-.4-1.8-1.1-2.3s-1.8-.8-3.2-.8h-3.3zM154.2 421.5l-2-5.6h-7.6l-2 5.6h-3.4l7.5-20.1h3.6l7.5 20.1h-3.6zm-2.8-8.3l-1.9-5.4c-.1-.4-.3-.9-.6-1.7-.2-.8-.4-1.4-.5-1.7-.2 1.1-.6 2.3-1.1 3.7l-1.8 5.2h5.9z"/></g></svg>