<svg id="Layer_1" xmlns="http://www.w3.org/2000/svg" viewBox="0 0 640 480"><style>.st0{fill:#58595b}</style><path class="st0" d="M31.7 178.1h-3.2v-20h11.3v2.8h-8v6.2h7.5v2.8h-7.5v8.2zM49.2 178.4c-2.4 0-4.2-.7-5.5-2.1-1.3-1.4-2-3.3-2-5.7 0-2.5.6-4.4 1.8-5.8 1.2-1.4 2.9-2.1 5.1-2.1 2 0 3.6.6 4.7 1.8 1.2 1.2 1.7 2.9 1.7 5v1.7H45c0 1.5.4 2.6 1.2 3.4.7.8 1.8 1.2 3.2 1.2.9 0 1.7-.1 2.5-.3.8-.2 1.6-.4 2.5-.8v2.6c-.8.4-1.6.6-2.4.8-.8.2-1.8.3-2.8.3zm-.6-13.3c-1 0-1.8.3-2.5 1-.6.6-1 1.6-1.1 2.8h6.9c0-1.2-.3-2.2-.9-2.8-.6-.7-1.4-1-2.4-1zM63.6 178.4c-1.9 0-3.4-.7-4.4-2.1-1.1-1.4-1.6-3.3-1.6-5.8s.5-4.4 1.6-5.8c1.1-1.4 2.6-2.1 4.5-2.1 2 0 3.5.7 4.5 2.2h.2c-.2-1.1-.2-1.9-.2-2.6v-5.5h3.2V178h-2.5l-.6-2h-.2c-1 1.6-2.6 2.4-4.5 2.4zm.8-2.6c1.3 0 2.3-.4 2.9-1.1.6-.7.9-1.9.9-3.6v-.5c0-1.9-.3-3.3-.9-4.1-.6-.8-1.6-1.2-2.9-1.2-1.1 0-2 .5-2.6 1.4-.6.9-.9 2.2-.9 3.9 0 1.7.3 3 .9 3.8.5.9 1.4 1.4 2.6 1.4zM82 178.4c-2.4 0-4.2-.7-5.5-2.1-1.3-1.4-2-3.3-2-5.7 0-2.5.6-4.4 1.8-5.8 1.2-1.4 2.9-2.1 5.1-2.1 2 0 3.6.6 4.7 1.8 1.2 1.2 1.7 2.9 1.7 5v1.7h-10c0 1.5.4 2.6 1.2 3.4.7.8 1.8 1.2 3.2 1.2.9 0 1.7-.1 2.5-.3.8-.2 1.6-.4 2.5-.8v2.6c-.8.4-1.6.6-2.4.8-.8.2-1.7.3-2.8.3zm-.6-13.3c-1 0-1.8.3-2.5 1-.6.6-1 1.6-1.1 2.8h6.9c0-1.2-.3-2.2-.9-2.8-.5-.7-1.3-1-2.4-1zM98.8 162.7c.6 0 1.2 0 1.6.1l-.3 3c-.5-.1-.9-.2-1.4-.2-1.3 0-2.3.4-3.1 1.3-.8.8-1.2 1.9-1.2 3.3v7.9h-3.2V163h2.5l.4 2.7h.2c.5-.9 1.2-1.6 2-2.1.7-.6 1.6-.9 2.5-.9zM111.9 178.1l-.6-2.1h-.1c-.7.9-1.5 1.5-2.2 1.9s-1.7.5-2.8.5c-1.5 0-2.6-.4-3.5-1.2-.8-.8-1.3-1.9-1.3-3.4 0-1.6.6-2.7 1.7-3.5 1.2-.8 2.9-1.2 5.3-1.3l2.6-.1v-.9c0-1-.2-1.7-.7-2.2s-1.2-.7-2.1-.7c-.8 0-1.5.1-2.2.3-.7.2-1.4.5-2.1.8l-1-2.3c.8-.4 1.7-.8 2.7-1 1-.2 1.9-.3 2.8-.3 1.9 0 3.4.4 4.4 1.3 1 .8 1.5 2.2 1.5 4v10.2h-2.4zm-4.7-2.2c1.2 0 2.1-.3 2.8-1 .7-.7 1.1-1.6 1.1-2.7v-1.3l-1.9.1c-1.5.1-2.6.3-3.3.8-.7.5-1 1.1-1 2.1 0 .7.2 1.2.6 1.6.3.2.9.4 1.7.4zM121.4 178.1h-3.2v-21.3h3.2v21.3z"/><g><path class="st0" d="M34.7 210.4c-2.4 0-4.2-.7-5.5-2.1-1.3-1.4-2-3.3-2-5.7 0-2.5.6-4.4 1.8-5.8 1.2-1.4 2.9-2.1 5.1-2.1 2 0 3.6.6 4.7 1.8 1.2 1.2 1.7 2.9 1.7 5v1.7h-10c0 1.5.4 2.6 1.2 3.4.7.8 1.8 1.2 3.2 1.2.9 0 1.7-.1 2.5-.3.8-.2 1.6-.4 2.5-.8v2.6c-.8.4-1.6.6-2.4.8-.9.2-1.8.3-2.8.3zm-.6-13.3c-1 0-1.8.3-2.5 1-.6.6-1 1.6-1.1 2.8h6.9c0-1.2-.3-2.2-.9-2.8-.6-.6-1.4-1-2.4-1zM56.6 210.1h-3.2v-9.3c0-1.2-.2-2-.7-2.6-.4-.6-1.1-.9-2.1-.9-1.2 0-2.1.4-2.7 1.2-.6.8-.9 2.1-.9 4v7.5h-3.2v-15h2.5l.5 2h.2c.4-.7 1-1.3 1.8-1.7.8-.4 1.7-.6 2.6-.6 2.3 0 3.9.8 4.6 2.4h.2c.4-.7 1.1-1.3 1.9-1.8.8-.4 1.7-.6 2.8-.6 1.8 0 3.1.5 3.9 1.4.8.9 1.2 2.3 1.2 4.2v9.9h-3.2v-9.3c0-1.2-.2-2-.7-2.6-.4-.6-1.1-.9-2.1-.9-1.2 0-2.2.4-2.7 1.2-.6.8-.9 2-.9 3.6v7.9zM77.7 210.4c-1.9 0-3.4-.7-4.5-2.1H73c.1 1.3.2 2.1.2 2.3v6.2H70V195h2.6c.1.3.2 1 .5 2h.2c1-1.5 2.5-2.3 4.5-2.3 1.9 0 3.4.7 4.4 2.1s1.6 3.3 1.6 5.8-.5 4.4-1.6 5.8c-1.2 1.3-2.6 2-4.5 2zm-.8-13.1c-1.3 0-2.2.4-2.8 1.1-.6.7-.9 1.9-.9 3.6v.5c0 1.8.3 3.2.9 4 .6.8 1.5 1.2 2.9 1.2 1.1 0 2-.5 2.6-1.4.6-.9.9-2.2.9-3.9 0-1.7-.3-3-.9-3.8-.7-.8-1.6-1.3-2.7-1.3zM90.2 210.1H87v-21.3h3.2v21.3zM107.8 202.5c0 2.5-.6 4.4-1.9 5.8-1.3 1.4-3 2.1-5.3 2.1-1.4 0-2.7-.3-3.7-1-1.1-.6-1.9-1.6-2.5-2.7-.6-1.2-.9-2.6-.9-4.2 0-2.5.6-4.4 1.9-5.7 1.3-1.4 3-2.1 5.3-2.1 2.2 0 3.9.7 5.2 2.1 1.2 1.4 1.9 3.3 1.9 5.7zm-11 0c0 3.5 1.3 5.2 3.9 5.2 2.6 0 3.8-1.7 3.8-5.2s-1.3-5.2-3.9-5.2c-1.3 0-2.3.4-2.9 1.3-.6 1-.9 2.2-.9 3.9zM108.4 195h3.5l3.1 8.6c.5 1.2.8 2.4.9 3.4h.1c.1-.5.2-1.1.5-1.8.2-.7 1.4-4.1 3.5-10.2h3.5l-6.5 17.1c-1.2 3.1-3.1 4.7-5.9 4.7-.7 0-1.4-.1-2.1-.2V214c.5.1 1 .2 1.7.2 1.5 0 2.6-.9 3.3-2.7l.6-1.4-6.2-15.1zM131.7 210.4c-2.4 0-4.2-.7-5.5-2.1-1.3-1.4-2-3.3-2-5.7 0-2.5.6-4.4 1.8-5.8 1.2-1.4 2.9-2.1 5.1-2.1 2 0 3.6.6 4.7 1.8 1.2 1.2 1.7 2.9 1.7 5v1.7h-10.1c0 1.5.4 2.6 1.2 3.4.7.8 1.8 1.2 3.2 1.2.9 0 1.7-.1 2.5-.3.8-.2 1.6-.4 2.5-.8v2.6c-.8.4-1.6.6-2.4.8-.8.2-1.7.3-2.7.3zm-.6-13.3c-1 0-1.8.3-2.5 1-.6.6-1 1.6-1.1 2.8h6.9c0-1.2-.3-2.2-.9-2.8-.6-.6-1.4-1-2.4-1zM147.5 210.4c-2.4 0-4.2-.7-5.5-2.1-1.3-1.4-2-3.3-2-5.7 0-2.5.6-4.4 1.8-5.8 1.2-1.4 2.9-2.1 5.1-2.1 2 0 3.6.6 4.7 1.8 1.2 1.2 1.7 2.9 1.7 5v1.7h-10.1c0 1.5.4 2.6 1.2 3.4.7.8 1.8 1.2 3.2 1.2.9 0 1.7-.1 2.5-.3.8-.2 1.6-.4 2.5-.8v2.6c-.8.4-1.6.6-2.4.8-.8.2-1.7.3-2.7.3zm-.6-13.3c-1 0-1.8.3-2.5 1-.6.6-1 1.6-1.1 2.8h6.9c0-1.2-.3-2.2-.9-2.8-.6-.6-1.4-1-2.4-1zM166.8 205.8c0 1.5-.5 2.6-1.6 3.4-1.1.8-2.6 1.2-4.6 1.2-2 0-3.6-.3-4.9-.9v-2.8c1.8.8 3.4 1.2 5 1.2 2 0 3-.6 3-1.8 0-.4-.1-.7-.3-1-.2-.3-.6-.5-1.1-.8-.5-.3-1.2-.6-2.1-.9-1.7-.7-2.9-1.3-3.5-2-.6-.7-.9-1.5-.9-2.6 0-1.3.5-2.3 1.6-3 1-.7 2.5-1.1 4.3-1.1 1.8 0 3.5.4 5 1.1l-1 2.4c-1.6-.7-3-1-4.1-1-1.7 0-2.5.5-2.5 1.4 0 .5.2.9.7 1.2.4.3 1.4.8 2.9 1.4 1.2.5 2.2.9 2.7 1.3.6.4 1 .9 1.3 1.4 0 .5.1 1.2.1 1.9zM169.3 196.7c0-1.4.7-2.1 2-2.1.7 0 1.2.2 1.5.5.3.4.5.9.5 1.5s-.2 1.2-.5 1.5c-.4.4-.9.6-1.5.6s-1.2-.2-1.5-.6c-.3-.2-.5-.7-.5-1.4zm0 11.7c0-.7.2-1.2.5-1.5.3-.4.8-.5 1.5-.5s1.2.2 1.5.6c.3.4.5.9.5 1.5s-.2 1.2-.5 1.5c-.4.4-.9.6-1.5.6s-1.2-.2-1.5-.6c-.3-.4-.5-1-.5-1.6z"/></g></svg>