<svg id="Layer_1" xmlns="http://www.w3.org/2000/svg" viewBox="0 0 640 480"><style>.st0{fill:#58595b}</style><path class="st0" d="M39.8 255.5l-2-5.6h-7.6l-2 5.6h-3.4l7.5-20.1h3.6l7.5 20.1h-3.6zm-2.8-8.4l-1.9-5.4c-.1-.4-.3-.9-.6-1.7-.2-.8-.4-1.4-.5-1.7-.2 1.1-.6 2.3-1.1 3.7l-1.8 5.2H37zM58.8 255.5h-3.2v-9.3c0-1.2-.2-2-.7-2.6-.5-.6-1.2-.9-2.2-.9-1.4 0-2.4.4-3 1.2s-.9 2.1-.9 4v7.5h-3.2v-15.1H48l.5 2h.2c.5-.7 1.1-1.3 1.9-1.7.8-.4 1.8-.6 2.8-.6 3.6 0 5.4 1.8 5.4 5.5v10zM76.7 255.8c-2.4 0-4.2-.7-5.5-2.1s-2-3.3-2-5.7c0-2.5.6-4.4 1.8-5.8s2.9-2.1 5.1-2.1c2 0 3.6.6 4.7 1.8 1.2 1.2 1.7 2.9 1.7 5v1.7h-10c0 1.5.4 2.6 1.2 3.4.7.8 1.8 1.2 3.2 1.2.9 0 1.7-.1 2.5-.3.8-.2 1.6-.4 2.5-.8v2.6c-.8.4-1.6.6-2.4.8-.9.2-1.8.3-2.8.3zm-.6-13.3c-1 0-1.8.3-2.5 1s-1 1.6-1.1 2.8h6.9c0-1.2-.3-2.2-.9-2.8-.6-.6-1.4-1-2.4-1zM95.1 255.5l-.6-2.1h-.1c-.7.9-1.5 1.5-2.2 1.9s-1.7.5-2.8.5c-1.5 0-2.6-.4-3.5-1.2s-1.3-1.9-1.3-3.4c0-1.6.6-2.7 1.7-3.5 1.2-.8 2.9-1.2 5.3-1.3l2.6-.1v-.8c0-1-.2-1.7-.7-2.2s-1.2-.7-2.1-.7c-.8 0-1.5.1-2.2.3s-1.4.5-2.1.8l-1-2.3c.8-.4 1.7-.8 2.7-1 1-.2 1.9-.3 2.8-.3 1.9 0 3.4.4 4.4 1.3 1 .8 1.5 2.2 1.5 4v10.2h-2.4zm-4.8-2.2c1.2 0 2.1-.3 2.8-1 .7-.7 1.1-1.6 1.1-2.7v-1.3l-1.9.1c-1.5.1-2.6.3-3.3.8-.7.5-1 1.1-1 2.1 0 .7.2 1.2.6 1.6.3.2.9.4 1.7.4zM111.7 251.2c0 1.5-.5 2.6-1.6 3.4-1.1.8-2.6 1.2-4.6 1.2-2 0-3.6-.3-4.9-.9v-2.8c1.8.8 3.4 1.2 5 1.2 2 0 3-.6 3-1.8 0-.4-.1-.7-.3-1s-.6-.5-1.1-.8c-.5-.3-1.2-.6-2.1-.9-1.7-.7-2.9-1.3-3.5-2s-.9-1.5-.9-2.6c0-1.3.5-2.3 1.6-3 1-.7 2.5-1.1 4.3-1.1 1.8 0 3.5.4 5 1.1l-1 2.4c-1.6-.7-3-1-4.1-1-1.7 0-2.5.5-2.5 1.4 0 .5.2.9.7 1.2.4.3 1.4.8 2.9 1.4 1.2.5 2.2.9 2.7 1.3.6.4 1 .9 1.3 1.4s.1 1.2.1 1.9zM113.1 240.4h3.5l3.1 8.6c.5 1.2.8 2.4.9 3.4h.1c.1-.5.2-1.1.5-1.8s1.4-4.1 3.5-10.2h3.5l-6.5 17.1c-1.2 3.1-3.1 4.7-5.9 4.7-.7 0-1.4-.1-2.1-.2v-2.5c.5.1 1 .2 1.7.2 1.5 0 2.6-.9 3.3-2.7l.6-1.4-6.2-15.2zM149.5 255.5l-2-7.1c-.2-.7-.7-2.5-1.3-5.2h-.1c-.5 2.5-.9 4.2-1.3 5.2l-2 7h-3.6l-4.2-15.1h3.3l1.9 7.5c.4 1.8.7 3.4.9 4.7h.1c.1-.7.2-1.4.4-2.3.2-.9.3-1.5.5-1.9l2.3-8h3.5l2.2 8c.1.4.3 1.1.5 2.1s.3 1.6.4 2.1h.1c.1-1.1.5-2.7 1-4.7l2-7.5h3.2l-4.3 15.1h-3.5zM168.8 255.5l-.6-2.1h-.2c-.7.9-1.5 1.5-2.2 1.9s-1.7.5-2.8.5c-1.5 0-2.6-.4-3.5-1.2s-1.3-1.9-1.3-3.4c0-1.6.6-2.7 1.7-3.5 1.2-.8 2.9-1.2 5.3-1.3l2.6-.1v-.8c0-1-.2-1.7-.7-2.2s-1.2-.7-2.1-.7c-.8 0-1.5.1-2.2.3s-1.4.5-2.1.8l-1-2.3c.8-.4 1.7-.8 2.7-1 1-.2 1.9-.3 2.8-.3 1.9 0 3.4.4 4.4 1.3 1 .8 1.5 2.2 1.5 4v10.2h-2.3zm-4.8-2.2c1.2 0 2.1-.3 2.8-1 .7-.7 1.1-1.6 1.1-2.7v-1.3l-1.9.1c-1.5.1-2.6.3-3.3.8-.7.5-1 1.1-1 2.1 0 .7.2 1.2.6 1.6.3.2.9.4 1.7.4zM172.5 240.4h3.5l3.1 8.6c.5 1.2.8 2.4.9 3.4h.1c.1-.5.2-1.1.5-1.8s1.4-4.1 3.5-10.2h3.5l-6.5 17.1c-1.2 3.1-3.1 4.7-5.9 4.7-.7 0-1.4-.1-2.1-.2v-2.5c.5.1 1 .2 1.7.2 1.5 0 2.6-.9 3.3-2.7l.6-1.4-6.2-15.2zM202.2 253.2c.8 0 1.6-.1 2.4-.4v2.4c-.4.2-.8.3-1.4.4s-1.1.2-1.7.2c-3 0-4.6-1.6-4.6-4.8v-8.1h-2.1v-1.4l2.2-1.2 1.1-3.2h2v3.4h4.3v2.4h-4.3v8.1c0 .8.2 1.3.6 1.7.4.3.9.5 1.5.5zM220.4 247.9c0 2.5-.6 4.4-1.9 5.8-1.3 1.4-3 2.1-5.3 2.1-1.4 0-2.7-.3-3.7-1-1.1-.6-1.9-1.6-2.5-2.7-.6-1.2-.9-2.6-.9-4.2 0-2.5.6-4.4 1.9-5.7s3-2.1 5.3-2.1c2.2 0 3.9.7 5.2 2.1 1.2 1.4 1.9 3.3 1.9 5.7zm-11 0c0 3.5 1.3 5.2 3.9 5.2 2.6 0 3.8-1.7 3.8-5.2s-1.3-5.2-3.9-5.2c-1.3 0-2.3.4-2.9 1.3-.6 1-.9 2.3-.9 3.9z"/><g><path class="st0" d="M34.8 272.1c1.9 0 3.4.7 4.4 2.1s1.6 3.3 1.6 5.8-.5 4.4-1.6 5.8-2.5 2.1-4.4 2.1c-1.9 0-3.4-.7-4.5-2.1h-.2l-.6 1.8h-2.4v-21.3h3.2v5.1c0 .4 0 .9-.1 1.7 0 .7-.1 1.2-.1 1.4h.1c1.1-1.6 2.6-2.4 4.6-2.4zm-.8 2.6c-1.3 0-2.2.4-2.8 1.1-.6.8-.9 2-.9 3.8v.2c0 1.8.3 3.2.9 4 .6.8 1.5 1.2 2.9 1.2 1.1 0 2-.5 2.6-1.4s.9-2.2.9-3.9c-.1-3.2-1.3-5-3.6-5zM57.6 279.9c0 2.5-.6 4.4-1.9 5.8-1.3 1.4-3 2.1-5.3 2.1-1.4 0-2.7-.3-3.7-1-1.1-.6-1.9-1.6-2.5-2.7-.6-1.2-.9-2.6-.9-4.2 0-2.5.6-4.4 1.9-5.7s3-2.1 5.3-2.1c2.2 0 3.9.7 5.2 2.1 1.3 1.4 1.9 3.3 1.9 5.7zm-11 0c0 3.5 1.3 5.2 3.9 5.2 2.6 0 3.8-1.7 3.8-5.2s-1.3-5.2-3.9-5.2c-1.3 0-2.3.4-2.9 1.3-.6 1-.9 2.3-.9 3.9zM74.3 279.9c0 2.5-.6 4.4-1.9 5.8-1.3 1.4-3 2.1-5.3 2.1-1.4 0-2.7-.3-3.7-1-1.1-.6-1.9-1.6-2.5-2.7-.6-1.2-.9-2.6-.9-4.2 0-2.5.6-4.4 1.9-5.7s3-2.1 5.3-2.1c2.2 0 3.9.7 5.2 2.1 1.2 1.4 1.9 3.3 1.9 5.7zm-11 0c0 3.5 1.3 5.2 3.9 5.2 2.6 0 3.8-1.7 3.8-5.2s-1.3-5.2-3.9-5.2c-1.3 0-2.3.4-2.9 1.3-.6 1-.9 2.3-.9 3.9zM87.6 283.2c0 1.5-.5 2.6-1.6 3.4-1.1.8-2.6 1.2-4.6 1.2-2 0-3.6-.3-4.9-.9v-2.8c1.8.8 3.4 1.2 5 1.2 2 0 3-.6 3-1.8 0-.4-.1-.7-.3-1s-.6-.5-1.1-.8c-.5-.3-1.2-.6-2.1-.9-1.7-.7-2.9-1.3-3.5-2s-.9-1.5-.9-2.6c0-1.3.5-2.3 1.6-3 1-.7 2.5-1.1 4.3-1.1 1.8 0 3.5.4 5 1.1l-1 2.4c-1.6-.7-3-1-4.1-1-1.7 0-2.5.5-2.5 1.4 0 .5.2.9.7 1.2.4.3 1.4.8 2.9 1.4 1.2.5 2.2.9 2.7 1.3.6.4 1 .9 1.3 1.4s.1 1.2.1 1.9zM96.8 285.2c.8 0 1.6-.1 2.4-.4v2.4c-.4.2-.8.3-1.4.4s-1.1.2-1.7.2c-3 0-4.6-1.6-4.6-4.8v-8.1h-2.1v-1.4l2.2-1.2 1.1-3.2h2v3.4H99v2.4h-4.3v8.1c0 .8.2 1.3.6 1.7.3.3.8.5 1.5.5zM106.6 272.4h3.5l3.1 8.6c.5 1.2.8 2.4.9 3.4h.1c.1-.5.2-1.1.5-1.8s1.4-4.1 3.5-10.2h3.5l-6.5 17.1c-1.2 3.1-3.1 4.7-5.9 4.7-.7 0-1.4-.1-2.1-.2v-2.5c.5.1 1 .2 1.7.2 1.5 0 2.6-.9 3.3-2.7l.6-1.4-6.2-15.2zM136.6 279.9c0 2.5-.6 4.4-1.9 5.8-1.3 1.4-3 2.1-5.3 2.1-1.4 0-2.7-.3-3.7-1-1.1-.6-1.9-1.6-2.5-2.7-.6-1.2-.9-2.6-.9-4.2 0-2.5.6-4.4 1.9-5.7s3-2.1 5.3-2.1c2.2 0 3.9.7 5.2 2.1 1.3 1.4 1.9 3.3 1.9 5.7zm-11 0c0 3.5 1.3 5.2 3.9 5.2 2.6 0 3.8-1.7 3.8-5.2s-1.3-5.2-3.9-5.2c-1.3 0-2.3.4-2.9 1.3-.6 1-.9 2.3-.9 3.9zM150.5 287.5l-.5-2h-.2c-.4.7-1.1 1.3-1.9 1.7-.8.4-1.8.6-2.8.6-1.8 0-3.2-.5-4.1-1.4s-1.4-2.3-1.4-4.1v-9.9h3.2v9.3c0 1.2.2 2 .7 2.6.5.6 1.2.9 2.2.9 1.3 0 2.3-.4 3-1.2.6-.8 1-2.2 1-4.1v-7.5h3.2v15.1h-2.4zM164.7 272.1c.6 0 1.2 0 1.6.1l-.3 3c-.5-.1-.9-.2-1.4-.2-1.3 0-2.3.4-3.1 1.3-.8.8-1.2 1.9-1.2 3.3v7.9H157v-15.1h2.5l.4 2.7h.2c.5-.9 1.2-1.6 2-2.1s1.7-.9 2.6-.9zM179 287.5h-3.2v-21.3h3.2v21.3zM182.9 268.4c0-.6.2-1 .5-1.3s.8-.5 1.3-.5c.6 0 1 .2 1.3.5s.5.8.5 1.3-.2 1-.5 1.3-.8.5-1.3.5c-.6 0-1-.2-1.3-.5s-.5-.8-.5-1.3zm3.4 19.1h-3.2v-15.1h3.2v15.1zM198 274.8h-3.7v12.7h-3.2v-12.7h-2.5v-1.5l2.5-1v-1c0-1.8.4-3.1 1.3-4 .8-.9 2.1-1.3 3.8-1.3 1.1 0 2.2.2 3.3.6l-.8 2.4c-.8-.3-1.5-.4-2.3-.4-.7 0-1.3.2-1.6.7-.3.5-.5 1.1-.5 2v1h3.7v2.5zM206.7 287.8c-2.4 0-4.2-.7-5.5-2.1s-2-3.3-2-5.7c0-2.5.6-4.4 1.8-5.8s2.9-2.1 5.1-2.1c2 0 3.6.6 4.7 1.8 1.2 1.2 1.7 2.9 1.7 5v1.7h-10.1c0 1.5.4 2.6 1.2 3.4.7.8 1.8 1.2 3.2 1.2.9 0 1.7-.1 2.5-.3.8-.2 1.6-.4 2.5-.8v2.6c-.8.4-1.6.6-2.4.8-.7.2-1.6.3-2.7.3zm-.6-13.2c-1 0-1.8.3-2.5 1s-1 1.6-1.1 2.8h6.9c0-1.2-.3-2.2-.9-2.8-.5-.7-1.3-1-2.4-1z"/></g><g><path class="st0" d="M26.9 300.4c0-.6.2-1 .5-1.3s.8-.5 1.3-.5c.6 0 1 .2 1.3.5s.5.8.5 1.3-.2 1-.5 1.3-.8.5-1.3.5c-.6 0-1-.2-1.3-.5s-.5-.8-.5-1.3zm3.4 19.1h-3.2v-15.1h3.2v15.1zM47.6 319.5h-3.2v-9.3c0-1.2-.2-2-.7-2.6-.5-.6-1.2-.9-2.2-.9-1.4 0-2.4.4-3 1.2s-.9 2.1-.9 4v7.5h-3.2v-15.1h2.5l.5 2h.2c.5-.7 1.1-1.3 1.9-1.7.8-.4 1.8-.6 2.8-.6 3.6 0 5.4 1.8 5.4 5.5v10zM61.8 315.2c0 1.5-.5 2.6-1.6 3.4-1.1.8-2.6 1.2-4.6 1.2-2 0-3.6-.3-4.9-.9v-2.8c1.8.8 3.4 1.2 5 1.2 2 0 3-.6 3-1.8 0-.4-.1-.7-.3-1s-.6-.5-1.1-.8c-.5-.3-1.2-.6-2.1-.9-1.7-.7-2.9-1.3-3.5-2s-.9-1.5-.9-2.6c0-1.3.5-2.3 1.6-3 1-.7 2.5-1.1 4.3-1.1 1.8 0 3.5.4 5 1.1l-1 2.4c-1.6-.7-3-1-4.1-1-1.7 0-2.5.5-2.5 1.4 0 .5.2.9.7 1.2.4.3 1.4.8 2.9 1.4 1.2.5 2.2.9 2.7 1.3.6.4 1 .9 1.3 1.4s.1 1.2.1 1.9zM75.4 319.5l-.5-2h-.2c-.4.7-1.1 1.3-1.9 1.7-.8.4-1.8.6-2.8.6-1.8 0-3.2-.5-4.1-1.4s-1.4-2.3-1.4-4.1v-9.9h3.2v9.3c0 1.2.2 2 .7 2.6.5.6 1.2.9 2.2.9 1.3 0 2.3-.4 3-1.2.6-.8 1-2.2 1-4.1v-7.5H78v15.1h-2.6zM89.6 304.1c.6 0 1.2 0 1.6.1l-.3 3c-.5-.1-.9-.2-1.4-.2-1.3 0-2.3.4-3.1 1.3-.8.8-1.2 1.9-1.2 3.3v7.9H82v-15.1h2.5l.4 2.7h.2c.5-.9 1.2-1.6 2-2.1s1.6-.9 2.5-.9zM102.8 319.5l-.6-2.1h-.2c-.7.9-1.5 1.5-2.2 1.9s-1.7.5-2.8.5c-1.5 0-2.6-.4-3.5-1.2s-1.3-1.9-1.3-3.4c0-1.6.6-2.7 1.7-3.5 1.2-.8 2.9-1.2 5.3-1.3l2.6-.1v-.8c0-1-.2-1.7-.7-2.2s-1.2-.7-2.1-.7c-.8 0-1.5.1-2.2.3s-1.4.5-2.1.8l-1-2.3c.8-.4 1.7-.8 2.7-1 1-.2 1.9-.3 2.8-.3 1.9 0 3.4.4 4.4 1.3 1 .8 1.5 2.2 1.5 4v10.2h-2.3zm-4.8-2.2c1.2 0 2.1-.3 2.8-1 .7-.7 1.1-1.6 1.1-2.7v-1.3l-1.9.1c-1.5.1-2.6.3-3.3.8-.7.5-1 1.1-1 2.1 0 .7.2 1.2.6 1.6.3.2.9.4 1.7.4zM122.3 319.5H119v-9.3c0-1.2-.2-2-.7-2.6-.5-.6-1.2-.9-2.2-.9-1.4 0-2.4.4-3 1.2s-.9 2.1-.9 4v7.5H109v-15.1h2.5l.5 2h.2c.5-.7 1.1-1.3 1.9-1.7.8-.4 1.8-.6 2.8-.6 3.6 0 5.4 1.8 5.4 5.5v10zM132.3 319.8c-2.3 0-4-.7-5.2-2s-1.8-3.3-1.8-5.7c0-2.5.6-4.5 1.9-5.9s3-2.1 5.4-2.1c1.6 0 3 .3 4.3.9l-1 2.6c-1.4-.5-2.5-.8-3.4-.8-2.6 0-3.9 1.7-3.9 5.2 0 1.7.3 3 1 3.8.7.9 1.6 1.3 2.9 1.3 1.4 0 2.8-.4 4.1-1.1v2.8c-.6.3-1.2.6-1.8.7-.7.2-1.5.3-2.5.3zM146 319.8c-2.4 0-4.2-.7-5.5-2.1s-2-3.3-2-5.7c0-2.5.6-4.4 1.8-5.8s2.9-2.1 5.1-2.1c2 0 3.6.6 4.7 1.8 1.2 1.2 1.7 2.9 1.7 5v1.7h-10.1c0 1.5.4 2.6 1.2 3.4.7.8 1.8 1.2 3.2 1.2.9 0 1.7-.1 2.5-.3.8-.2 1.6-.4 2.5-.8v2.6c-.8.4-1.6.6-2.4.8-.7.2-1.6.3-2.7.3zm-.5-13.2c-1 0-1.8.3-2.5 1s-1 1.6-1.1 2.8h6.9c0-1.2-.3-2.2-.9-2.8-.6-.7-1.4-1-2.4-1zM154.7 317.8c0-.7.2-1.2.5-1.5.3-.4.8-.5 1.5-.5s1.2.2 1.5.6c.3.4.5.9.5 1.5s-.2 1.2-.5 1.5c-.4.4-.9.6-1.5.6s-1.2-.2-1.5-.6c-.3-.4-.5-.9-.5-1.6z"/></g></svg>