<svg id="Layer_1" xmlns="http://www.w3.org/2000/svg" viewBox="0 0 173 33.8"><style>.st0{fill:#f78e1e}.st1{fill:#fff}</style><path class="st0" d="M5.4 0S0 0 0 5.4v22.9s0 5.4 5.4 5.4h162.2s5.4 0 5.4-5.4V5.4s0-5.4-5.4-5.4H5.4z"/><path class="st1" d="M16.3 23.1h-2V11h6.8v1.7h-4.8v3.8h4.5v1.7h-4.5v4.9zM23.4 23.1V11h2v12h-2zM38.6 23.1h-2.4l-5.9-9.6h-.1v.5c.1 1 .1 2 .1 2.8v6.3h-1.8V11h2.4l5.9 9.6c0-.1 0-.6-.1-1.4V11h1.8v12.1zM51.5 16.9c0 2-.6 3.5-1.7 4.6-1.1 1.1-2.7 1.6-4.8 1.6h-3.4V11h3.7c1.9 0 3.4.5 4.5 1.5 1.2 1.1 1.7 2.6 1.7 4.4zm-2 .1c0-2.9-1.3-4.3-4-4.3h-1.7v8.7h1.4c2.8 0 4.3-1.4 4.3-4.4zM69.2 17c0 2-.5 3.5-1.5 4.6s-2.4 1.6-4.2 1.6c-1.8 0-3.2-.5-4.2-1.6S57.8 19 57.8 17s.5-3.5 1.5-4.6c1-1.1 2.4-1.6 4.2-1.6 1.8 0 3.2.5 4.2 1.6s1.5 2.7 1.5 4.6zM60 17c0 1.5.3 2.6.9 3.4.6.8 1.5 1.1 2.7 1.1 1.2 0 2.1-.4 2.6-1.1.6-.8.9-1.9.9-3.4s-.3-2.6-.9-3.4c-.6-.8-1.5-1.1-2.6-1.1-1.2 0-2.1.4-2.7 1.1-.6.8-.9 2-.9 3.4zM81.2 11v7.8c0 .9-.2 1.7-.6 2.3-.4.7-.9 1.2-1.7 1.5-.7.4-1.6.5-2.6.5-1.5 0-2.7-.4-3.5-1.2-.8-.8-1.2-1.9-1.2-3.3V11h2v7.6c0 1 .2 1.7.7 2.2.5.5 1.2.7 2.1.7 1.9 0 2.8-1 2.8-2.9V11h2zM88.5 23.1h-2V12.7H83V11h9v1.7h-3.5v10.4zM107.8 23.1h-2v-5.4h-5.6v5.4h-2V11h2v5h5.6v-5h2v12.1zM121.6 17c0 2-.5 3.5-1.5 4.6s-2.4 1.6-4.2 1.6c-1.8 0-3.2-.5-4.2-1.6s-1.5-2.6-1.5-4.6.5-3.5 1.5-4.6c1-1.1 2.4-1.6 4.2-1.6 1.8 0 3.2.5 4.2 1.6s1.5 2.7 1.5 4.6zm-9.2 0c0 1.5.3 2.6.9 3.4.6.8 1.5 1.1 2.7 1.1 1.2 0 2.1-.4 2.6-1.1.6-.8.9-1.9.9-3.4s-.3-2.6-.9-3.4c-.6-.8-1.5-1.1-2.6-1.1-1.2 0-2.1.4-2.7 1.1-.6.8-.9 2-.9 3.4zM135.3 23.1h-2.1l-2-7.2c-.1-.3-.2-.8-.3-1.4-.1-.6-.2-1-.2-1.2-.1.4-.1.8-.3 1.4-.1.6-.2 1-.3 1.3l-2 7.2H126l-1.6-6-1.6-6h2l1.7 7c.3 1.1.5 2.1.6 3 .1-.5.2-1 .3-1.6.1-.6.2-1 .3-1.4l2-7h2l2 7.1c.2.7.4 1.6.6 2.9.1-.8.3-1.8.6-3l1.7-7h2l-3.3 11.9z"/></svg>