<svg id="Layer_1" xmlns="http://www.w3.org/2000/svg" viewBox="0 0 154.4 108.6"><style>.st0{fill:#eaebec}.st1{fill:#002f87}.st2{fill:#58595b}.st3{fill:none}</style><path class="st0" d="M0 0h154.4v108.6H0z"/><path class="st1" d="M46.8 15.3L36.6 31.7 26.4 15.3h-9.2v38.8h8.3V28.9l10.8 16.4h.3l10.9-16.5v25.3h8.4V15.3zM81.5 54.1H63V15.3h18c7.9 0 12.8 3.9 12.8 10v.1c0 4.4-2.3 6.8-5.1 8.4 4.5 1.7 7.3 4.3 7.3 9.5v.1c0 7.1-5.8 10.7-14.5 10.7m3.8-27.3c0-2.5-2-4-5.6-4h-8.4V31h7.9c3.8 0 6.1-1.2 6.1-4.1v-.1zm2.2 15.5c0-2.6-1.9-4.2-6.3-4.2h-9.9v8.5h10.1c3.8 0 6-1.3 6-4.2v-.1zM128.4 54.1l-3.5-8.7h-16.4l-3.5 8.7h-8.7l16.6-39h7.9l16.6 39h-9zm-11.8-28.8l-5.2 12.6h10.3l-5.1-12.6z"/><path class="st2" d="M17.2 58.5h13.6v2.9H20.4v5h9.2v2.9h-9.2v7.5h-3.2zM33.7 58.5h13.6v2.9H37v4.7h9.1V69H37v4.9h10.4v2.9H33.7zM50.7 58.5h6.8c5.7 0 9.7 3.9 9.7 9.1v.1c0 5.1-4 9.1-9.7 9.1h-6.8V58.5zm3.2 2.9v12.4h3.6c3.8 0 6.3-2.6 6.3-6.2v-.1c0-3.6-2.5-6.2-6.3-6.2h-3.6zM70.4 58.5H84v2.9H73.6v4.7h9.2V69h-9.2v4.9h10.5v2.9H70.4zM87.6 58.5h8.1c2.3 0 4.1.7 5.3 1.8 1 1 1.5 2.3 1.5 3.9v.1c0 3-1.8 4.8-4.3 5.5l4.9 6.9h-3.8l-4.5-6.4h-4v6.4h-3.2V58.5zm7.9 9.1c2.3 0 3.8-1.2 3.8-3v-.1c0-2-1.4-3-3.8-3h-4.7v6.1h4.7zM111.8 58.4h3l8 18.4h-3.4l-1.9-4.4h-8.6l-1.9 4.4h-3.3l8.1-18.4zm4.6 11.1l-3.2-7.3-3.1 7.3h6.3zM124.2 58.5h3.2v15.4h9.6v2.9h-12.8zM17.2 80.9h1.4v11.2h7.1v1.3h-8.5zM28.1 80.6h1.6v1.5h-1.6v-1.5zm.1 3.5h1.4v9.2h-1.4v-9.2zM33.2 85.3H32v-1.2h1.3v-.8c0-1.1.3-1.9.8-2.4s1.1-.7 2-.7c.6 0 1.1.1 1.5.2v1.2c-.5-.1-.9-.2-1.3-.2-1.1 0-1.6.6-1.6 2v.8h2.9v1.2h-2.9v8h-1.4v-8.1zM38.2 88.8c0-2.7 1.9-4.8 4.4-4.8 2.7 0 4.3 2.2 4.3 4.9v.4h-7.3c.2 2 1.6 3.1 3.3 3.1 1.3 0 2.2-.5 2.9-1.3l.9.8c-.9 1-2.1 1.7-3.8 1.7-2.6 0-4.7-2-4.7-4.8m7.3-.6c-.1-1.7-1.1-3.1-3-3.1-1.6 0-2.8 1.3-3 3.1h6zM55.1 80.9h1.4v12.5h-1.4zM59.9 84.1h1.4v1.6c.6-1 1.6-1.8 3.2-1.8 2.2 0 3.5 1.5 3.5 3.7v5.7h-1.4V88c0-1.7-.9-2.8-2.6-2.8-1.6 0-2.8 1.2-2.8 2.9v5.3h-1.4v-9.3zM70.2 92.2l.7-1c1 .8 2.1 1.2 3.2 1.2s1.9-.6 1.9-1.5-1.1-1.3-2.3-1.6c-1.4-.4-3.1-.9-3.1-2.6 0-1.6 1.3-2.6 3.1-2.6 1.1 0 2.4.4 3.3 1l-.6 1c-.9-.6-1.8-.9-2.7-.9-1.1 0-1.8.6-1.8 1.3 0 .9 1.1 1.2 2.4 1.6 1.4.4 3 1 3 2.6 0 1.8-1.4 2.8-3.3 2.8-1.3 0-2.8-.5-3.8-1.3M79.7 89.9v-5.7h1.4v5.4c0 1.7.9 2.8 2.6 2.8 1.6 0 2.8-1.2 2.8-2.9v-5.3h1.4v9.2h-1.4v-1.6c-.6 1-1.6 1.8-3.2 1.8-2.3 0-3.6-1.5-3.6-3.7M90.8 84.1h1.4v2.4c.7-1.5 2-2.6 3.8-2.6v1.5h-.1c-2 0-3.7 1.4-3.7 4.2v3.7h-1.4v-9.2zM96.7 90.7c0-2 1.6-3 4-3 1.2 0 2 .2 2.8.4v-.3c0-1.7-1-2.5-2.8-2.5-1.1 0-1.9.3-2.8.7l-.4-1.1c1-.5 2-.8 3.4-.8 1.3 0 2.3.3 3 1 .6.6.9 1.5.9 2.7v5.7h-1.3V92c-.6.8-1.7 1.6-3.3 1.6-1.8 0-3.5-1-3.5-2.9m6.8-.7v-.9c-.7-.2-1.6-.4-2.7-.4-1.7 0-2.7.8-2.7 1.9 0 1.2 1.1 1.8 2.3 1.8 1.7.1 3.1-1 3.1-2.4M107.7 84.1h1.4v1.6c.6-1 1.6-1.8 3.2-1.8 2.2 0 3.5 1.5 3.5 3.7v5.7h-1.4V88c0-1.7-.9-2.8-2.6-2.8-1.6 0-2.8 1.2-2.8 2.9v5.3h-1.4v-9.3zM118.2 88.8c0-2.6 2-4.9 4.7-4.9 1.8 0 2.8.7 3.7 1.6l-.9 1c-.7-.8-1.6-1.4-2.8-1.4-1.9 0-3.3 1.6-3.3 3.6s1.5 3.6 3.4 3.6c1.2 0 2.1-.6 2.8-1.4l.9.8c-.9 1-2 1.8-3.8 1.8-2.7.1-4.7-2.1-4.7-4.7M128.1 88.8c0-2.7 1.9-4.8 4.4-4.8 2.7 0 4.3 2.2 4.3 4.9v.4h-7.3c.2 2 1.6 3.1 3.3 3.1 1.3 0 2.2-.5 2.9-1.3l.9.8c-.9 1-2.1 1.7-3.8 1.7-2.6 0-4.7-2-4.7-4.8m7.4-.6c-.1-1.7-1.1-3.1-3-3.1-1.6 0-2.8 1.3-3 3.1h6z"/><path class="st3" d="M17.2 15h120.1v78.6H17.2z"/></svg>